<svg width="28" height="28" viewBox="0 0 28 28" fill="none" xmlns="http://www.w3.org/2000/svg">
<g clip-path="url(#clip0_2_836)">
<path d="M23.0234 9.02344C23.0234 4.04794 18.9755 0 14 0C9.02451 0 4.97656 4.04794 4.97656 9.02344V14.8203H0V16.4609H1.69531V28H26.3047C26.3047 26.7266 26.3047 17.5908 26.3047 16.4609H28V14.8203H23.0234V9.02344ZM19.7422 23.0781V16.4609H21.3828V23.0781H19.7422ZM8.25781 16.4609V23.0781H6.61719V16.4609H8.25781ZM14 4.92188C14.816 6.88144 16.2193 8.60153 18.1016 9.80573V14.8203H9.89844V9.80573C11.686 8.6622 13.141 6.98483 14 4.92188ZM9.89844 16.4609H11.5391V23.0781H9.89844V16.4609ZM13.1797 16.4609H14.8203V23.0781H13.1797V16.4609ZM16.4609 16.4609H18.1016V23.0781H16.4609V16.4609ZM19.7422 14.8203V10.6649C20.2722 10.8862 20.8208 11.0655 21.3828 11.1985V14.8203H19.7422ZM21.3828 9.02344V9.50516C17.8038 8.50198 15.2149 5.40552 14.862 1.69125C18.5282 2.11957 21.3828 5.24402 21.3828 9.02344ZM13.138 1.69125C12.7851 5.40552 10.1962 8.50177 6.61719 9.50516V9.02344C6.61719 5.24402 9.47183 2.11957 13.138 1.69125ZM6.61719 11.1985C7.17923 11.0655 7.72781 10.8862 8.25781 10.6649V14.8203H6.61719V11.1985ZM3.33594 16.4609H4.97656V23.0781H3.33594V16.4609ZM24.6641 26.3594H3.33594V24.7188H24.6641V26.3594ZM24.6641 23.0781H23.0234V16.4609H24.6641V23.0781Z" fill="#484848"/>
</g>
<defs>
<clipPath id="clip0_2_836">
<rect width="28" height="28" fill="white"/>
</clipPath>
</defs>
</svg>
