<svg width="163" height="163" viewBox="0 0 163 163" fill="none" xmlns="http://www.w3.org/2000/svg">
<path d="M136.253 126.987C143.568 118.185 148.656 107.751 151.086 96.5678C153.516 85.3841 153.216 73.7798 150.213 62.7363C147.21 51.6928 141.591 41.5351 133.831 33.1225C126.072 24.71 116.401 18.2899 105.636 14.4056C94.8703 10.5213 83.3279 9.28686 71.9847 10.8068C60.6415 12.3268 49.8312 16.5564 40.4684 23.1379C31.1056 29.7194 23.4656 38.4591 18.1948 48.6177C12.9241 58.7763 10.1775 70.055 10.1875 81.4995C10.1914 98.1367 16.0542 114.241 26.7473 126.987L26.6454 127.073C27.002 127.501 27.4095 127.868 27.7762 128.291C28.2347 128.815 28.7288 129.309 29.2025 129.819C30.6287 131.367 32.0957 132.855 33.6341 134.25C34.1027 134.678 34.5866 135.076 35.0603 135.483C36.6903 136.889 38.3662 138.224 40.1031 139.466C40.3272 139.619 40.531 139.818 40.7551 139.976V139.915C52.6852 148.31 66.9171 152.816 81.5051 152.816C96.0931 152.816 110.325 148.31 122.255 139.915V139.976C122.479 139.818 122.678 139.619 122.907 139.466C124.639 138.218 126.32 136.889 127.95 135.483C128.424 135.076 128.908 134.673 129.376 134.25C130.914 132.85 132.381 131.367 133.808 129.819C134.281 129.309 134.77 128.815 135.234 128.291C135.596 127.868 136.008 127.501 136.365 127.068L136.253 126.987ZM81.5 40.7495C86.0335 40.7495 90.4653 42.0939 94.2347 44.6126C98.0042 47.1313 100.942 50.7112 102.677 54.8996C104.412 59.088 104.866 63.6968 103.981 68.1432C103.097 72.5897 100.914 76.6739 97.7082 79.8796C94.5026 83.0853 90.4183 85.2684 85.9719 86.1528C81.5255 87.0373 76.9166 86.5834 72.7282 84.8485C68.5398 83.1135 64.9599 80.1756 62.4412 76.4061C59.9225 72.6366 58.5782 68.2049 58.5782 63.6714C58.5782 57.5921 60.9931 51.7619 65.2918 47.4632C69.5905 43.1645 75.4208 40.7495 81.5 40.7495ZM40.7857 126.987C40.874 120.298 43.5921 113.914 48.3517 109.214C53.1114 104.515 59.5299 101.878 66.2188 101.875H96.7813C103.47 101.878 109.889 104.515 114.648 109.214C119.408 113.914 122.126 120.298 122.214 126.987C111.043 137.054 96.5381 142.625 81.5 142.625C66.462 142.625 51.9571 137.054 40.7857 126.987Z" fill="#9A9A9A"/>
</svg>
