<svg width="54" height="54" viewBox="0 0 54 54" fill="none" xmlns="http://www.w3.org/2000/svg">
<circle cx="27" cy="27" r="27" fill="#FF3366"/>
<path fill-rule="evenodd" clip-rule="evenodd" d="M31.3257 29.899L36.7057 35.279C36.8948 35.4682 37.001 35.7248 37.0009 35.9923C37.0008 36.2599 36.8945 36.5164 36.7052 36.7055C36.516 36.8946 36.2594 37.0008 35.9919 37.0007C35.7244 37.0006 35.4678 36.8942 35.2787 36.705L29.8987 31.325C28.2905 32.5707 26.268 33.1569 24.2429 32.9643C22.2177 32.7718 20.342 31.815 18.9972 30.2886C17.6525 28.7622 16.9397 26.7808 17.004 24.7475C17.0683 22.7143 17.9047 20.7818 19.3431 19.3434C20.7816 17.9049 22.714 17.0685 24.7473 17.0042C26.7806 16.94 28.7619 17.6527 30.2884 18.9975C31.8148 20.3422 32.7716 22.218 32.9641 24.2431C33.1566 26.2683 32.5704 28.2907 31.3247 29.899H31.3257ZM25.0007 31C26.592 31 28.1182 30.3678 29.2434 29.2426C30.3686 28.1174 31.0007 26.5913 31.0007 25C31.0007 23.4087 30.3686 21.8826 29.2434 20.7573C28.1182 19.6321 26.592 19 25.0007 19C23.4094 19 21.8833 19.6321 20.7581 20.7573C19.6329 21.8826 19.0007 23.4087 19.0007 25C19.0007 26.5913 19.6329 28.1174 20.7581 29.2426C21.8833 30.3678 23.4094 31 25.0007 31Z" fill="white"/>
</svg>
