<svg width="15" height="17" viewBox="0 0 15 17" fill="none" xmlns="http://www.w3.org/2000/svg">
<path d="M9.2608 8.18432L14.6306 2.33652C14.8658 2.07984 14.9979 1.7317 14.9979 1.3687C14.9979 1.0057 14.8658 0.657565 14.6306 0.400883C14.3955 0.144202 14.0765 0 13.744 0C13.4114 0 13.0925 0.144202 12.8573 0.400883L7.5 6.26232L2.14268 0.400883C1.90752 0.144202 1.58859 -2.70458e-09 1.25603 0C0.923478 2.70458e-09 0.604543 0.144202 0.369391 0.400883C0.134239 0.657565 0.00213119 1.0057 0.00213119 1.3687C0.00213119 1.7317 0.134239 2.07984 0.369391 2.33652L5.7392 8.18432L0.369391 14.0321C0.252343 14.1588 0.159441 14.3096 0.0960411 14.4757C0.0326416 14.6418 0 14.82 0 14.9999C0 15.1799 0.0326416 15.3581 0.0960411 15.5242C0.159441 15.6903 0.252343 15.841 0.369391 15.9678C0.485482 16.0955 0.6236 16.1969 0.775777 16.2661C0.927954 16.3353 1.09118 16.371 1.25603 16.371C1.42089 16.371 1.58411 16.3353 1.73629 16.2661C1.88847 16.1969 2.02659 16.0955 2.14268 15.9678L7.5 10.1063L12.8573 15.9678C12.9734 16.0955 13.1115 16.1969 13.2637 16.2661C13.4159 16.3353 13.5791 16.371 13.744 16.371C13.9088 16.371 14.072 16.3353 14.2242 16.2661C14.3764 16.1969 14.5145 16.0955 14.6306 15.9678C14.7477 15.841 14.8406 15.6903 14.904 15.5242C14.9674 15.3581 15 15.1799 15 14.9999C15 14.82 14.9674 14.6418 14.904 14.4757C14.8406 14.3096 14.7477 14.1588 14.6306 14.0321L9.2608 8.18432Z" fill="#484848"/>
</svg>
