<svg width="16" height="17" viewBox="0 0 16 17" fill="none" xmlns="http://www.w3.org/2000/svg">
<path d="M9.26975 8.43526L14.6447 2.56934C14.8801 2.31187 15.0124 1.96265 15.0124 1.59853C15.0124 1.2344 14.8801 0.885188 14.6447 0.627711C14.4094 0.370235 14.0901 0.225586 13.7572 0.225586C13.4244 0.225586 13.1051 0.370235 12.8697 0.627711L7.50725 6.5073L2.14475 0.627711C1.90937 0.370235 1.59012 0.225586 1.25725 0.225586C0.924371 0.225586 0.605128 0.370235 0.369748 0.627711C0.134368 0.885188 0.00213325 1.2344 0.00213325 1.59853C0.00213325 1.96265 0.134368 2.31187 0.369748 2.56934L5.74475 8.43526L0.369748 14.3012C0.252587 14.4283 0.159595 14.5795 0.0961339 14.7461C0.0326731 14.9128 0 15.0915 0 15.272C0 15.4525 0.0326731 15.6312 0.0961339 15.7978C0.159595 15.9645 0.252587 16.1157 0.369748 16.2428C0.485952 16.371 0.624203 16.4727 0.776527 16.5421C0.928851 16.6115 1.09223 16.6473 1.25725 16.6473C1.42226 16.6473 1.58564 16.6115 1.73797 16.5421C1.89029 16.4727 2.02854 16.371 2.14475 16.2428L7.50725 10.3632L12.8697 16.2428C12.986 16.371 13.1242 16.4727 13.2765 16.5421C13.4289 16.6115 13.5922 16.6473 13.7572 16.6473C13.9223 16.6473 14.0856 16.6115 14.238 16.5421C14.3903 16.4727 14.5285 16.371 14.6447 16.2428C14.7619 16.1157 14.8549 15.9645 14.9184 15.7978C14.9818 15.6312 15.0145 15.4525 15.0145 15.272C15.0145 15.0915 14.9818 14.9128 14.9184 14.7461C14.8549 14.5795 14.7619 14.4283 14.6447 14.3012L9.26975 8.43526Z" fill="#484848"/>
</svg>
