<svg width="18" height="17" viewBox="0 0 18 17" fill="none" xmlns="http://www.w3.org/2000/svg">
<path d="M11.113 8.49879L17.5567 2.4263C17.8389 2.15975 17.9974 1.79824 17.9974 1.42129C17.9974 1.04434 17.8389 0.682831 17.5567 0.416287C17.2745 0.149743 16.8918 0 16.4928 0C16.0937 0 15.711 0.149743 15.4288 0.416287L9 6.50294L2.57121 0.416287C2.28903 0.149743 1.90631 -2.80849e-09 1.50724 0C1.10817 2.8085e-09 0.725452 0.149743 0.443269 0.416287C0.161086 0.682831 0.00255743 1.04434 0.00255743 1.42129C0.00255743 1.79824 0.161086 2.15975 0.443269 2.4263L6.88704 8.49879L0.443269 14.5713C0.302812 14.7029 0.191329 14.8594 0.115249 15.0319C0.0391699 15.2044 0 15.3894 0 15.5763C0 15.7632 0.0391699 15.9482 0.115249 16.1207C0.191329 16.2932 0.302812 16.4497 0.443269 16.5813C0.582579 16.714 0.74832 16.8193 0.930933 16.8911C1.11355 16.963 1.30941 17 1.50724 17C1.70507 17 1.90094 16.963 2.08355 16.8911C2.26616 16.8193 2.4319 16.714 2.57121 16.5813L9 10.4946L15.4288 16.5813C15.5681 16.714 15.7338 16.8193 15.9165 16.8911C16.0991 16.963 16.2949 17 16.4928 17C16.6906 17 16.8865 16.963 17.0691 16.8911C17.2517 16.8193 17.4174 16.714 17.5567 16.5813C17.6972 16.4497 17.8087 16.2932 17.8848 16.1207C17.9608 15.9482 18 15.7632 18 15.5763C18 15.3894 17.9608 15.2044 17.8848 15.0319C17.8087 14.8594 17.6972 14.7029 17.5567 14.5713L11.113 8.49879Z" fill="#9A9A9A"/>
</svg>
