<svg width="109" height="59" viewBox="0 0 109 59" fill="none" xmlns="http://www.w3.org/2000/svg">
<rect x="5" y="6" width="98" height="46" rx="23" fill="white"/>
<path d="M79.9998 10.6666C70.0613 10.6666 61.6665 19.0615 61.6665 29C61.6665 38.9385 70.0613 47.3333 79.9998 47.3333C89.9383 47.3333 98.3332 38.9385 98.3332 29C98.3332 19.0615 89.9383 10.6666 79.9998 10.6666ZM79.9998 19.8333C83.166 19.8333 85.4998 22.1653 85.4998 25.3333C85.4998 28.5013 83.166 30.8333 79.9998 30.8333C76.8355 30.8333 74.4998 28.5013 74.4998 25.3333C74.4998 22.1653 76.8355 19.8333 79.9998 19.8333ZM70.6388 37.7486C72.2833 35.3286 75.026 33.7153 78.1665 33.7153H81.8332C84.9755 33.7153 87.7163 35.3286 89.3608 37.7486C87.0178 40.2566 83.694 41.8333 79.9998 41.8333C76.3057 41.8333 72.9818 40.2566 70.6388 37.7486Z" fill="#C2C6CC"/>
<path d="M27 23C27 22.7348 27.1054 22.4804 27.2929 22.2929C27.4804 22.1054 27.7348 22 28 22H46C46.2652 22 46.5196 22.1054 46.7071 22.2929C46.8946 22.4804 47 22.7348 47 23C47 23.2652 46.8946 23.5196 46.7071 23.7071C46.5196 23.8946 46.2652 24 46 24H28C27.7348 24 27.4804 23.8946 27.2929 23.7071C27.1054 23.5196 27 23.2652 27 23Z" fill="#484848"/>
<path d="M27 29.032C27 28.7668 27.1054 28.5124 27.2929 28.3249C27.4804 28.1373 27.7348 28.032 28 28.032H46C46.2652 28.032 46.5196 28.1373 46.7071 28.3249C46.8946 28.5124 47 28.7668 47 29.032C47 29.2972 46.8946 29.5516 46.7071 29.7391C46.5196 29.9266 46.2652 30.032 46 30.032H28C27.7348 30.032 27.4804 29.9266 27.2929 29.7391C27.1054 29.5516 27 29.2972 27 29.032Z" fill="#484848"/>
<path d="M28 34.064C27.7348 34.064 27.4804 34.1693 27.2929 34.3569C27.1054 34.5444 27 34.7987 27 35.064C27 35.3292 27.1054 35.5835 27.2929 35.7711C27.4804 35.9586 27.7348 36.064 28 36.064H46C46.2652 36.064 46.5196 35.9586 46.7071 35.7711C46.8946 35.5835 47 35.3292 47 35.064C47 34.7987 46.8946 34.5444 46.7071 34.3569C46.5196 34.1693 46.2652 34.064 46 34.064H28Z" fill="#484848"/>
</svg>
