<svg width="22" height="22" viewBox="0 0 22 22" fill="none" xmlns="http://www.w3.org/2000/svg">
<path d="M2.0625 2.55621V19.4429C2.06261 19.4796 2.07354 19.5154 2.09391 19.5458C2.11428 19.5763 2.14319 19.6 2.17701 19.6141C2.21083 19.6282 2.24806 19.632 2.28402 19.625C2.31999 19.618 2.35309 19.6006 2.37918 19.5748L11.1719 11L2.37918 2.42429C2.35309 2.39857 2.31999 2.38112 2.28402 2.37414C2.24806 2.36716 2.21083 2.37094 2.17701 2.38503C2.14319 2.39912 2.11428 2.42288 2.09391 2.45333C2.07354 2.48378 2.06261 2.51957 2.0625 2.55621Z" fill="#484848"/>
<path d="M14.8583 7.47657L3.8334 1.40251L3.82653 1.39864C3.6366 1.29551 3.45613 1.55247 3.61168 1.702L12.254 9.96575L14.8583 7.47657Z" fill="#484848"/>
<path d="M3.61316 20.2981C3.45676 20.4476 3.63722 20.7045 3.82801 20.6014L3.83488 20.5975L14.8589 14.5235L12.2546 12.0334L3.61316 20.2981Z" fill="#484848"/>
<path d="M19.3095 9.92577L16.2307 8.23022L13.3359 11L16.2307 13.7685L19.3095 12.0742C20.1469 11.6114 20.1469 10.3885 19.3095 9.92577Z" fill="#484848"/>
</svg>
