<svg width="191" height="38" viewBox="0 0 191 38" fill="none" xmlns="http://www.w3.org/2000/svg">
<path d="M120 7C116.738 7 116.331 7.01575 115.055 7.06976C113.773 7.13277 112.906 7.33154 112.141 7.62858C111.34 7.93088 110.615 8.40419 110.016 9.0155C109.402 9.61317 108.929 10.3388 108.629 11.1405C108.332 11.9056 108.133 12.7727 108.07 14.0546C108.012 15.332 108 15.7378 108 19C108 22.2622 108.016 22.6687 108.07 23.9454C108.133 25.2235 108.332 26.0944 108.629 26.8595C108.931 27.6602 109.404 28.3854 110.016 28.9845C110.613 29.5975 111.339 30.0711 112.141 30.3714C112.906 30.6647 113.776 30.8672 115.055 30.9302C116.332 30.988 116.738 31 120 31C123.262 31 123.669 30.9842 124.945 30.9302C126.224 30.8672 127.094 30.664 127.859 30.3714C128.66 30.0691 129.385 29.5958 129.984 28.9845C130.598 28.3875 131.072 27.6617 131.371 26.8595C131.665 26.0944 131.867 25.2235 131.93 23.9454C131.988 22.668 132 22.2622 132 19C132 15.7378 131.984 15.3313 131.93 14.0546C131.867 12.7765 131.664 11.9011 131.371 11.1405C131.069 10.3398 130.596 9.61457 129.984 9.0155C129.387 8.40169 128.662 7.928 127.859 7.62858C127.094 7.33154 126.224 7.13277 124.945 7.06976C123.668 7.012 123.262 7 120 7ZM120 9.16027C123.204 9.16027 123.586 9.17602 124.852 9.23003C126.02 9.28479 126.656 9.47981 127.079 9.64483C127.601 9.83755 128.073 10.1443 128.462 10.5427C128.86 10.9296 129.165 11.4011 129.356 11.9221C129.521 12.3444 129.716 12.9805 129.771 14.1484C129.825 15.4146 129.84 15.7978 129.84 19.0007C129.84 22.2037 129.825 22.5869 129.766 23.8531C129.703 25.021 129.508 25.6571 129.344 26.0794C129.117 26.6427 128.863 27.0365 128.445 27.4626C128.055 27.8585 127.582 28.1637 127.061 28.3567C126.644 28.5217 125.999 28.7167 124.827 28.7715C123.554 28.8255 123.179 28.8412 119.967 28.8412C116.755 28.8412 116.381 28.8255 115.106 28.767C113.938 28.704 113.294 28.5089 112.872 28.3447C112.302 28.1174 111.911 27.8639 111.492 27.4453C111.07 27.023 110.802 26.621 110.595 26.0621C110.427 25.6451 110.235 25 110.172 23.8276C110.13 22.5697 110.109 22.1796 110.109 18.9827C110.109 15.7873 110.13 15.3966 110.172 14.1229C110.235 12.9505 110.427 12.3069 110.595 11.8884C110.802 11.3175 111.071 10.9275 111.492 10.5052C111.91 10.0874 112.302 9.81735 112.872 9.60583C113.294 9.44156 113.923 9.24653 115.095 9.18802C116.368 9.14227 116.743 9.12577 119.95 9.12577L120 9.16027ZM120 12.841C119.191 12.8407 118.39 12.9998 117.642 13.3093C116.895 13.6188 116.215 14.0726 115.643 14.6447C115.071 15.2168 114.617 15.8961 114.308 16.6436C113.998 17.3912 113.839 18.1924 113.839 19.0015C113.839 19.8106 113.998 20.6118 114.308 21.3594C114.617 22.1069 115.071 22.7862 115.643 23.3583C116.215 23.9304 116.895 24.3842 117.642 24.6937C118.39 25.0032 119.191 25.1623 120 25.162C120.809 25.1623 121.61 25.0032 122.358 24.6937C123.105 24.3842 123.785 23.9304 124.357 23.3583C124.929 22.7862 125.383 22.1069 125.692 21.3594C126.002 20.6118 126.161 19.8106 126.161 19.0015C126.161 18.1924 126.002 17.3912 125.692 16.6436C125.383 15.8961 124.929 15.2168 124.357 14.6447C123.785 14.0726 123.105 13.6188 122.358 13.3093C121.61 12.9998 120.809 12.8407 120 12.841ZM120 23.0018C117.789 23.0018 116 21.2128 116 19.0015C116 16.7902 117.789 15.0013 120 15.0013C122.211 15.0013 124 16.7902 124 19.0015C124 21.2128 122.211 23.0018 120 23.0018ZM127.849 12.5949C127.849 12.9772 127.696 13.3437 127.426 13.6139C127.156 13.8841 126.789 14.0359 126.407 14.0359C126.218 14.0359 126.03 13.9986 125.856 13.9263C125.681 13.854 125.522 13.7479 125.389 13.6143C125.255 13.4806 125.149 13.3219 125.077 13.1473C125.004 12.9727 124.967 12.7855 124.967 12.5964C124.967 12.4074 125.004 12.2202 125.077 12.0456C125.149 11.871 125.255 11.7123 125.389 11.5786C125.522 11.445 125.681 11.3389 125.856 11.2666C126.03 11.1943 126.218 11.157 126.407 11.157C127.199 11.157 127.849 11.8021 127.849 12.5949Z" fill="#484848"/>
<path d="M30.4286 7H11.5714C10.8894 7 10.2354 7.27092 9.75315 7.75315C9.27092 8.23539 9 8.88944 9 9.57143V28.4286C9 29.1106 9.27092 29.7646 9.75315 30.2468C10.2354 30.7291 10.8894 31 11.5714 31H18.9241V22.8405H15.5491V19H18.9241V16.0729C18.9241 12.7434 20.9063 10.9043 23.9421 10.9043C25.3961 10.9043 26.9164 11.1636 26.9164 11.1636V14.4314H25.2413C23.5907 14.4314 23.0759 15.4557 23.0759 16.5063V19H26.7605L26.1713 22.8405H23.0759V31H30.4286C31.1106 31 31.7646 30.7291 32.2468 30.2468C32.7291 29.7646 33 29.1106 33 28.4286V9.57143C33 8.88944 32.7291 8.23539 32.2468 7.75315C31.7646 7.27092 31.1106 7 30.4286 7Z" fill="#484848"/>
<path d="M84 10.6096C83.0071 11.0506 81.9405 11.3486 80.8191 11.4832C81.9761 10.7893 82.8417 9.69719 83.2544 8.41062C82.1674 9.05779 80.9777 9.51332 79.737 9.75742C78.9027 8.86456 77.7977 8.27275 76.5934 8.07389C75.3891 7.87502 74.1531 8.08022 73.0771 8.65763C72.0011 9.23505 71.1454 10.1524 70.6429 11.2672C70.1403 12.382 70.019 13.6319 70.2979 14.8228C68.0952 14.712 65.9405 14.1382 63.9735 13.1386C62.0064 12.1391 60.2711 10.7361 58.88 9.02085C58.4043 9.84324 58.1308 10.7967 58.1308 11.8122C58.1303 12.7263 58.3549 13.6265 58.7847 14.4328C59.2145 15.2391 59.8362 15.9265 60.5947 16.4342C59.7151 16.4062 58.8549 16.1679 58.0857 15.7394V15.8109C58.0856 17.093 58.528 18.3357 59.338 19.3281C60.148 20.3204 61.2755 21.0014 62.5294 21.2553C61.7134 21.4767 60.8579 21.5093 60.0275 21.3507C60.3812 22.4539 61.0703 23.4186 61.9983 24.1097C62.9262 24.8009 64.0466 25.1839 65.2025 25.2051C63.2403 26.7491 60.8169 27.5866 58.3223 27.5829C57.8804 27.583 57.4389 27.5571 57 27.5054C59.5322 29.1373 62.4798 30.0034 65.4903 30C75.681 30 81.252 21.5402 81.252 14.2031C81.252 13.9647 81.246 13.7239 81.2353 13.4856C82.3189 12.7001 83.2543 11.7274 83.9976 10.6132L84 10.6096Z" fill="#484848"/>
<path fill-rule="evenodd" clip-rule="evenodd" d="M156 9.00509C156 8.47331 156.211 7.96331 156.587 7.58728C156.963 7.21125 157.473 7 158.005 7H177.993C178.256 6.99957 178.517 7.05113 178.761 7.15171C179.004 7.2523 179.226 7.39994 179.412 7.58619C179.599 7.77243 179.747 7.99363 179.847 8.2371C179.948 8.48058 180 8.74156 180 9.00509V28.9927C180 29.2563 179.949 29.5174 179.848 29.761C179.747 30.0046 179.599 30.2259 179.413 30.4123C179.227 30.5988 179.006 30.7466 178.762 30.8475C178.518 30.9483 178.257 31.0001 177.994 31H158.005C157.742 31 157.481 30.9481 157.238 30.8473C156.994 30.7464 156.773 30.5986 156.587 30.4123C156.401 30.226 156.253 30.0049 156.152 29.7615C156.052 29.5181 156 29.2572 156 28.9938V9.00509ZM165.5 16.1505H168.749V17.7825C169.219 16.8444 170.419 16 172.222 16C175.679 16 176.498 17.8687 176.498 21.2975V27.6487H173V22.0785C173 20.1258 172.531 19.024 171.339 19.024C169.687 19.024 168.999 20.212 168.999 22.0785V27.6487H165.5V16.1505ZM159.5 27.4993H162.999V16H159.5V27.4982V27.4993ZM163.5 12.2495C163.507 12.5491 163.453 12.847 163.343 13.1258C163.233 13.4046 163.068 13.6585 162.859 13.8728C162.649 14.087 162.399 14.2572 162.123 14.3735C161.846 14.4897 161.55 14.5495 161.25 14.5495C160.95 14.5495 160.654 14.4897 160.377 14.3735C160.101 14.2572 159.851 14.087 159.641 13.8728C159.432 13.6585 159.267 13.4046 159.157 13.1258C159.047 12.847 158.993 12.5491 159 12.2495C159.013 11.6613 159.256 11.1016 159.676 10.6902C160.097 10.2788 160.662 10.0485 161.25 10.0485C161.838 10.0485 162.403 10.2788 162.824 10.6902C163.244 11.1016 163.487 11.6613 163.5 12.2495Z" fill="#484848"/>
</svg>
