<svg width="31" height="30" viewBox="0 0 31 30" fill="none" xmlns="http://www.w3.org/2000/svg">
<g clip-path="url(#clip0_2_637)">
<path d="M26.5791 5.76258C25.9296 5.12384 25.1583 4.61714 24.3095 4.27144C23.4606 3.92574 22.5508 3.7478 21.6319 3.7478C20.7131 3.7478 19.8032 3.92574 18.9544 4.27144C18.1055 4.61714 17.3343 5.12384 16.6847 5.76258L15.3366 7.08758L13.9885 5.76258C12.6765 4.47297 10.8969 3.74847 9.04134 3.74847C7.18577 3.74847 5.40621 4.47297 4.09412 5.76258C2.78204 7.0522 2.04492 8.80129 2.04492 10.6251C2.04492 12.4489 2.78204 14.198 4.09412 15.4876L5.44221 16.8126L15.3366 26.5376L25.2311 16.8126L26.5791 15.4876C27.229 14.8491 27.7445 14.0911 28.0963 13.2568C28.448 12.4225 28.629 11.5282 28.629 10.6251C28.629 9.72198 28.448 8.82771 28.0963 7.99339C27.7445 7.15907 27.229 6.40103 26.5791 5.76258V5.76258Z" stroke="#9A9A9A" stroke-width="2.5" stroke-linecap="round" stroke-linejoin="round"/>
</g>
<defs>
<clipPath id="clip0_2_637">
<rect width="30.5226" height="30" fill="white" transform="translate(0.0761719)"/>
</clipPath>
</defs>
</svg>
