<svg width="25" height="23" viewBox="0 0 25 23" fill="none" xmlns="http://www.w3.org/2000/svg">
<path d="M5.57816 7.5584C5.29131 5.75002 6.62346 4.12565 8.65849 3.53052C9.01962 3.42484 9.40927 3.45492 9.74803 3.61464C10.0868 3.77436 10.3492 4.0517 10.4818 4.39015L11.1351 6.05765C11.2402 6.3259 11.2593 6.61812 11.1897 6.8968C11.1201 7.17547 10.9651 7.42789 10.7446 7.62165L8.80117 9.32509C8.70537 9.40923 8.63399 9.51569 8.59398 9.6341C8.55398 9.7525 8.54671 9.87881 8.57288 10.0007L8.59091 10.0755L8.63746 10.2623C8.87915 11.1703 9.24741 12.0431 9.73232 12.857C10.2605 13.722 10.9161 14.5096 11.6787 15.1958L11.7388 15.2476C11.8358 15.33 11.9535 15.387 12.0804 15.4129C12.2072 15.4389 12.339 15.4329 12.4627 15.3956L14.9753 14.6381C15.2609 14.5523 15.5667 14.5501 15.8536 14.6318C16.1404 14.7135 16.3953 14.8754 16.5853 15.0966L17.7748 16.4781C18.2704 17.0531 18.2104 17.8983 17.6411 18.4058C16.0837 19.7958 13.9421 20.0805 12.4522 18.9348C10.626 17.5248 9.08645 15.8052 7.91056 13.8618C6.72513 11.92 5.9333 9.78139 5.57666 7.5584H5.57816ZM10.1483 10.0956L11.7583 8.68109C12.1996 8.29373 12.5099 7.78898 12.6493 7.23162C12.7888 6.67426 12.751 6.08974 12.5408 5.55308L11.889 3.88559C11.6222 3.20457 11.0941 2.64655 10.4124 2.32523C9.73067 2.00392 8.9466 1.9435 8.21995 2.15627C5.69231 2.89659 3.66329 5.06577 4.09282 7.77546C4.39319 9.66721 5.08555 12.0736 6.61295 14.5863C7.88159 16.6818 9.54227 18.5359 11.512 20.056C13.7468 21.7738 16.7295 21.1873 18.6669 19.4595C19.8174 18.4331 19.9345 16.7282 18.9358 15.5667L17.7463 14.1838C17.3658 13.7418 16.856 13.4186 16.2823 13.2557C15.7086 13.0928 15.0971 13.0976 14.5263 13.2696L12.4402 13.8978C11.9016 13.3662 11.4298 12.7762 11.0344 12.1397C10.6526 11.4962 10.3549 10.8102 10.1483 10.097V10.0956Z" fill="#484848"/>
</svg>
