<svg width="33" height="33" viewBox="0 0 33 33" fill="none" xmlns="http://www.w3.org/2000/svg">
<path fill-rule="evenodd" clip-rule="evenodd" d="M13.75 2.75C13.203 2.75 12.6784 2.9673 12.2916 3.35409C11.9048 3.74089 11.6875 4.26549 11.6875 4.8125H9.625C9.07799 4.8125 8.55339 5.0298 8.16659 5.41659C7.7798 5.80339 7.5625 6.32799 7.5625 6.875V26.125C7.5625 26.672 7.7798 27.1966 8.16659 27.5834C8.55339 27.9702 9.07799 28.1875 9.625 28.1875H17.875V26.8125H9.625C9.44266 26.8125 9.2678 26.7401 9.13886 26.6111C9.00993 26.4822 8.9375 26.3073 8.9375 26.125V6.875C8.9375 6.69266 9.00993 6.5178 9.13886 6.38886C9.2678 6.25993 9.44266 6.1875 9.625 6.1875H11.6875C11.6875 6.73451 11.9048 7.25911 12.2916 7.64591C12.6784 8.0327 13.203 8.25 13.75 8.25H19.25C19.797 8.25 20.3216 8.0327 20.7084 7.64591C21.0952 7.25911 21.3125 6.73451 21.3125 6.1875H23.375C23.5573 6.1875 23.7322 6.25993 23.8611 6.38886C23.9901 6.5178 24.0625 6.69266 24.0625 6.875V17.1875H25.4375V6.875C25.4375 6.32799 25.2202 5.80339 24.8334 5.41659C24.4466 5.0298 23.922 4.8125 23.375 4.8125H21.3125C21.3125 4.26549 21.0952 3.74089 20.7084 3.35409C20.3216 2.9673 19.797 2.75 19.25 2.75H13.75ZM13.0625 4.8125C13.0625 4.63016 13.1349 4.4553 13.2639 4.32636C13.3928 4.19743 13.5677 4.125 13.75 4.125H19.25C19.4323 4.125 19.6072 4.19743 19.7361 4.32636C19.8651 4.4553 19.9375 4.63016 19.9375 4.8125V6.1875C19.9375 6.36984 19.8651 6.5447 19.7361 6.67364C19.6072 6.80257 19.4323 6.875 19.25 6.875H13.75C13.5677 6.875 13.3928 6.80257 13.2639 6.67364C13.1349 6.5447 13.0625 6.36984 13.0625 6.1875V4.8125ZM15.8125 13.0625V11H17.1875V13.0625H19.25V14.4375H17.1875V16.5H15.8125V14.4375H13.75V13.0625H15.8125ZM18.5625 19.25C18.5625 19.0677 18.6349 18.8928 18.7639 18.7639C18.8928 18.6349 19.0677 18.5625 19.25 18.5625H27.5C27.6823 18.5625 27.8572 18.6349 27.9861 18.7639C28.1151 18.8928 28.1875 19.0677 28.1875 19.25V23.9174C28.1875 24.7097 27.9919 25.4896 27.618 26.1881C27.2442 26.8866 26.7037 27.482 26.0446 27.9214L23.7566 29.4477C23.6436 29.5231 23.5108 29.5633 23.375 29.5633C23.2392 29.5633 23.1064 29.5231 22.9934 29.4477L20.7054 27.9214C20.0464 27.482 19.506 26.8868 19.1321 26.1884C18.7583 25.4901 18.5626 24.7102 18.5625 23.9181V19.25ZM19.9375 19.9375V23.9174C19.9376 24.4833 20.0773 25.0405 20.3444 25.5394C20.6115 26.0383 20.9977 26.4636 21.4686 26.7774L23.375 28.05L25.2814 26.7781C25.7523 26.4643 26.1385 26.039 26.4056 25.5401C26.6727 25.0412 26.8124 24.484 26.8125 23.9181V19.9375H19.9375ZM23.1736 25.2361L25.9236 22.4861L24.9514 21.5139L22.6875 23.7779L21.7986 22.8889L20.8264 23.8611L22.2014 25.2361C22.3304 25.3649 22.5052 25.4374 22.6875 25.4374C22.8698 25.4374 23.0446 25.3649 23.1736 25.2361Z" fill="#484848"/>
</svg>
