<svg width="109" height="59" viewBox="0 0 109 59" fill="none" xmlns="http://www.w3.org/2000/svg">
<rect x="5" y="6" width="98" height="46" rx="23" fill="white"/>
<path d="M79.9994 10.6667C70.0609 10.6667 61.666 19.0616 61.666 29.0001C61.666 38.9386 70.0609 47.3334 79.9994 47.3334C89.9379 47.3334 98.3327 38.9386 98.3327 29.0001C98.3327 19.0616 89.9379 10.6667 79.9994 10.6667ZM79.9994 19.8334C83.1655 19.8334 85.4994 22.1654 85.4994 25.3334C85.4994 28.5014 83.1655 30.8334 79.9994 30.8334C76.835 30.8334 74.4994 28.5014 74.4994 25.3334C74.4994 22.1654 76.835 19.8334 79.9994 19.8334ZM70.6384 37.7487C72.2829 35.3287 75.0255 33.7154 78.166 33.7154H81.8327C84.975 33.7154 87.7159 35.3287 89.3604 37.7487C87.0174 40.2567 83.6935 41.8334 79.9994 41.8334C76.3052 41.8334 72.9814 40.2567 70.6384 37.7487Z" fill="#C2C6CC"/>
<path d="M27 23C27 22.7348 27.1054 22.4804 27.2929 22.2929C27.4804 22.1054 27.7348 22 28 22H46C46.2652 22 46.5196 22.1054 46.7071 22.2929C46.8946 22.4804 47 22.7348 47 23C47 23.2652 46.8946 23.5196 46.7071 23.7071C46.5196 23.8946 46.2652 24 46 24H28C27.7348 24 27.4804 23.8946 27.2929 23.7071C27.1054 23.5196 27 23.2652 27 23Z" fill="#484848"/>
<path d="M27 29.032C27 28.7668 27.1054 28.5124 27.2929 28.3249C27.4804 28.1373 27.7348 28.032 28 28.032H46C46.2652 28.032 46.5196 28.1373 46.7071 28.3249C46.8946 28.5124 47 28.7668 47 29.032C47 29.2972 46.8946 29.5516 46.7071 29.7391C46.5196 29.9266 46.2652 30.032 46 30.032H28C27.7348 30.032 27.4804 29.9266 27.2929 29.7391C27.1054 29.5516 27 29.2972 27 29.032Z" fill="#484848"/>
<path d="M28 34.064C27.7348 34.064 27.4804 34.1693 27.2929 34.3569C27.1054 34.5444 27 34.7987 27 35.064C27 35.3292 27.1054 35.5835 27.2929 35.7711C27.4804 35.9586 27.7348 36.064 28 36.064H46C46.2652 36.064 46.5196 35.9586 46.7071 35.7711C46.8946 35.5835 47 35.3292 47 35.064C47 34.7987 46.8946 34.5444 46.7071 34.3569C46.5196 34.1693 46.2652 34.064 46 34.064H28Z" fill="#484848"/>
</svg>
