<svg width="24" height="24" viewBox="0 0 24 24" fill="none" xmlns="http://www.w3.org/2000/svg">
<path d="M12 1.5C6.19969 1.5 1.5 6.19969 1.5 12C1.5 17.8003 6.19969 22.5 12 22.5C17.8003 22.5 22.5 17.8003 22.5 12C22.5 6.19969 17.8003 1.5 12 1.5ZM8.01562 16.5886C7.95119 16.6985 7.85896 16.7895 7.74821 16.8524C7.63745 16.9154 7.51208 16.9481 7.38469 16.9472C7.25485 16.9483 7.12727 16.9133 7.01625 16.8459C6.93359 16.798 6.8612 16.7343 6.80324 16.6583C6.74528 16.5824 6.70288 16.4957 6.67849 16.4034C6.6541 16.311 6.6482 16.2147 6.66111 16.12C6.67403 16.0254 6.70551 15.9342 6.75375 15.8517L7.47047 14.6602C7.50669 14.5987 7.55836 14.5477 7.62036 14.5123C7.68236 14.477 7.75253 14.4585 7.82391 14.4586H7.92984C8.44969 14.4586 8.81344 14.7712 8.91937 15.0741L8.01562 16.5886ZM14.0836 14.2448L9.39 14.25H6.27047C6.17232 14.2504 6.07511 14.2309 5.98474 14.1926C5.89436 14.1543 5.8127 14.0981 5.74472 14.0273C5.67673 13.9565 5.62384 13.8726 5.58924 13.7808C5.55464 13.6889 5.53906 13.591 5.54344 13.493C5.55844 13.0992 5.90203 12.8011 6.29344 12.8011H8.55469L11.2355 8.23781L10.3673 6.75891C10.1719 6.42188 10.2586 5.9775 10.5938 5.76562C10.6764 5.71219 10.769 5.67601 10.8659 5.65927C10.9629 5.64253 11.0622 5.64557 11.158 5.6682C11.2538 5.69084 11.344 5.73261 11.4232 5.791C11.5024 5.84939 11.569 5.92319 11.6189 6.00797L12.083 6.80062H12.0881L12.5527 6.00797C12.6027 5.92363 12.6691 5.85022 12.7481 5.79213C12.8271 5.73403 12.917 5.69244 13.0124 5.66982C13.1078 5.6472 13.2068 5.64403 13.3034 5.66049C13.4001 5.67695 13.4925 5.71271 13.575 5.76562C13.9083 5.9775 13.9941 6.42188 13.7972 6.76031L12.9291 8.23922L12.0853 9.67781L10.253 12.8025V12.8077H12.9534C13.2919 12.8077 13.7161 12.9895 13.8877 13.282L13.9027 13.3125C14.0541 13.5698 14.1398 13.7466 14.1398 14.0039C14.1374 14.0875 14.1187 14.1698 14.085 14.2463L14.0836 14.2448ZM17.7281 14.25H16.4573V14.2552L17.3864 15.8353C17.4863 16.0017 17.5169 16.2007 17.4716 16.3895C17.4263 16.5782 17.3087 16.7416 17.1441 16.8445C17.03 16.9141 16.8989 16.9509 16.7653 16.9509C16.6383 16.9509 16.5134 16.918 16.4028 16.8554C16.2923 16.7928 16.1998 16.7027 16.1344 16.5938L14.7614 14.2566L13.9083 12.8034L12.8077 10.9219C12.6482 10.6532 12.5616 10.3476 12.5562 10.0353C12.5509 9.72294 12.6271 9.41458 12.7772 9.14062C12.9947 8.75672 13.1611 8.65594 13.1611 8.65594L15.6094 12.7969H17.7145C18.1083 12.7969 18.4463 13.0997 18.4645 13.4883C18.4683 13.5871 18.4521 13.6856 18.4168 13.778C18.3816 13.8704 18.328 13.9546 18.2594 14.0258C18.1907 14.0969 18.1084 14.1535 18.0174 14.192C17.9263 14.2305 17.8284 14.2503 17.7295 14.25H17.7281Z" fill="#484848"/>
</svg>
