<svg width="26" height="26" viewBox="0 0 26 26" fill="none" xmlns="http://www.w3.org/2000/svg">
<path d="M2.36452 2.42969L22.1021 21.1742C22.4766 21.5299 22.687 22.0123 22.687 22.5153C22.687 23.0183 22.4766 23.5007 22.1021 23.8564V23.8564C21.7275 24.212 21.2196 24.4117 20.6899 24.4117C20.1603 24.4117 19.6524 24.212 19.2778 23.8564L14.4563 19.1987C14.1408 18.8944 13.9638 18.4845 13.9634 18.0575V17.7761C13.9635 17.5605 13.9184 17.347 13.8309 17.1481C13.7433 16.9491 13.615 16.7686 13.4534 16.6172L12.8309 16.0713C12.6196 15.8861 12.3626 15.7544 12.0836 15.6882C11.8047 15.6221 11.5126 15.6236 11.2345 15.6927V15.6927C10.7958 15.8015 10.3348 15.7994 9.89727 15.6866C9.45972 15.5739 9.06082 15.3545 8.74014 15.0502L4.16348 10.7033C1.44844 8.12483 0.44932 4.23123 2.36452 2.42969Z" stroke="#484848" stroke-width="1.5" stroke-linejoin="round"/>
<path d="M20.713 1.62891L16.5745 5.55913C16.2561 5.8615 16.0034 6.22048 15.8311 6.61558C15.6587 7.01067 15.57 7.43414 15.57 7.8618V8.61783C15.5701 8.7248 15.5479 8.83072 15.5048 8.92954C15.4617 9.02836 15.3985 9.11814 15.3188 9.19375L14.7129 9.76917" stroke="#484848" stroke-width="1.5" stroke-linecap="round" stroke-linejoin="round"/>
<path d="M16.4277 11.3972L17.0336 10.8218C17.1133 10.7461 17.2078 10.6861 17.3118 10.6451C17.4159 10.6042 17.5274 10.5831 17.6401 10.5831H18.4362C18.8865 10.5832 19.3324 10.4989 19.7484 10.3352C20.1644 10.1716 20.5424 9.93164 20.8608 9.62921L24.9993 5.69897" stroke="#484848" stroke-width="1.5" stroke-linecap="round" stroke-linejoin="round"/>
<path d="M22.8561 3.66406L18.5703 7.73421" stroke="#484848" stroke-width="1.5" stroke-linecap="round" stroke-linejoin="round"/>
<path d="M9.99966 18.7233L4.65745 23.8252C4.2556 24.2067 3.71064 24.4211 3.14243 24.4211C2.57421 24.4211 2.02926 24.2067 1.62741 23.8252V23.8252C1.22568 23.4436 1 22.926 1 22.3864C1 21.8468 1.22568 21.3293 1.62741 20.9476L6.14247 16.6882" stroke="#484848" stroke-width="1.5" stroke-linecap="round" stroke-linejoin="round"/>
</svg>
