<svg width="26" height="26" viewBox="0 0 26 26" fill="none" xmlns="http://www.w3.org/2000/svg">
<path d="M22.5376 0H3.50054C2.25735 0 1.24609 1.00928 1.24609 2.25005V23.75C1.24609 24.9907 2.25735 26 3.50054 26H22.5376C23.7808 26 24.7921 24.9907 24.7921 23.75V2.25005C24.7921 1.00928 23.7808 0 22.5376 0V0ZM2.74906 2.25005C2.74906 1.83646 3.08614 1.50003 3.50054 1.50003H22.5376C22.952 1.50003 23.2891 1.83646 23.2891 2.25005V5.24991H2.74906V2.25005ZM23.2891 23.75C23.2891 24.1635 22.952 24.5 22.5376 24.5H3.50054C3.08614 24.5 2.74906 24.1635 2.74906 23.75V6.74994H23.2891V23.75Z" fill="#484848"/>
<path d="M18.0294 2.625H16.5269C16.1119 2.625 15.7754 2.96083 15.7754 3.37502C15.7754 3.7892 16.1119 4.12503 16.5269 4.12503H18.0294C18.4444 4.12503 18.7809 3.7892 18.7809 3.37502C18.7809 2.96083 18.4444 2.625 18.0294 2.625Z" fill="#484848"/>
<path d="M22.0373 2.625H20.5347C20.1197 2.625 19.7832 2.96083 19.7832 3.37502C19.7832 3.7892 20.1197 4.12503 20.5347 4.12503H22.0373C22.4523 4.12503 22.7885 3.7892 22.7885 3.37502C22.7885 2.96083 22.4523 2.625 22.0373 2.625Z" fill="#484848"/>
<path d="M5.75586 15.625C5.75586 19.6227 9.01441 22.875 13.0199 22.875C17.0255 22.875 20.2841 19.6227 20.2841 15.625C20.2841 15.4304 20.2761 15.2376 20.261 15.047C20.261 15.046 20.2608 15.045 20.2608 15.0442C19.9633 11.3171 16.8296 8.375 13.0199 8.375C9.21038 8.375 6.07665 11.3171 5.77911 15.0442C5.77891 15.045 5.77891 15.046 5.77891 15.047C5.76381 15.2376 5.75586 15.4304 5.75586 15.625ZM13.0199 21.375C9.97219 21.375 7.4701 19.0008 7.27174 16.0085C7.43393 16.0751 7.57762 16.1632 7.7416 16.2637C8.18481 16.5361 8.73675 16.8751 9.7635 16.8751C10.7903 16.8751 11.342 16.5363 11.7854 16.2639C12.1529 16.0382 12.4182 15.8752 13.0197 15.8752C13.6211 15.8752 13.8866 16.0382 14.2541 16.2639C14.6975 16.5361 15.2495 16.8751 16.2762 16.8751C17.303 16.8751 17.8549 16.5363 18.2983 16.2639C18.4623 16.1632 18.606 16.0751 18.768 16.0085C18.5698 19.0008 16.0677 21.375 13.0199 21.375ZM13.0199 9.87503C15.8004 9.87503 18.1272 11.8511 18.6644 14.4701C18.1566 14.5903 17.8086 14.8034 17.5107 14.9863C17.1432 15.212 16.8776 15.3751 16.2762 15.3751C15.6748 15.3751 15.4093 15.212 15.0418 14.9863C14.5984 14.7139 14.0466 14.3749 13.0197 14.3749C11.9929 14.3749 11.4412 14.7139 10.9978 14.9863C10.6303 15.212 10.3647 15.3751 9.7635 15.3751C9.16208 15.3751 8.89655 15.212 8.52905 14.9863C8.23112 14.8032 7.88331 14.5901 7.37549 14.4701C7.91272 11.8511 10.2395 9.87503 13.0199 9.87503Z" fill="#484848"/>
</svg>
