<svg width="43" height="38" viewBox="0 0 43 38" fill="none" xmlns="http://www.w3.org/2000/svg">
<path d="M39.4184 11.3252C39.1061 11.2023 38.7732 11.1397 38.4376 11.1406H38.4024C36.6297 11.167 34.6416 12.8273 33.5983 15.3383C32.3476 18.3424 32.9233 21.4159 34.8938 22.2061C35.2059 22.3289 35.5384 22.3916 35.8738 22.3906C37.6553 22.3906 39.6707 20.7207 40.7227 18.193C41.9646 15.1889 41.3801 12.1153 39.4184 11.3252V11.3252Z" stroke="#484848" stroke-width="3" stroke-miterlimit="10"/>
<path d="M27.9806 23.048C25.5373 18.9937 24.4826 17.4688 21.6877 17.4688C18.8927 17.4688 17.8293 19.0033 15.3859 23.048C13.2941 26.5074 9.06657 26.7957 8.01189 29.7339C7.79792 30.2721 7.69046 30.8467 7.69548 31.4258C7.69548 33.8155 9.52361 35.75 11.7736 35.75C14.5685 35.75 18.3742 33.5185 21.6965 33.5185C25.0187 33.5185 28.8068 35.75 31.6017 35.75C33.8517 35.75 35.6711 33.8164 35.6711 31.4258C35.6731 30.8461 35.5627 30.2715 35.3459 29.7339C34.2912 26.7852 30.0724 26.5074 27.9806 23.048Z" stroke="#484848" stroke-width="3" stroke-miterlimit="10"/>
<path d="M16.1079 13.6016C16.2255 13.6017 16.3431 13.5928 16.4594 13.5752C18.4994 13.279 19.7729 10.4524 19.3106 7.26025C18.8755 4.25088 17.0492 2 15.1393 2C15.0216 1.99991 14.9041 2.00872 14.7877 2.02637C12.7478 2.32256 11.4743 5.14912 11.9366 8.34131C12.3716 11.3419 14.198 13.6016 16.1079 13.6016Z" stroke="#484848" stroke-width="3" stroke-miterlimit="10"/>
<path d="M31.4369 8.34131C31.8992 5.14912 30.6256 2.32256 28.5857 2.02637C28.4693 2.00872 28.3518 1.99991 28.2341 2C26.3243 2 24.5014 4.25088 24.0655 7.26025C23.6032 10.4524 24.8767 13.279 26.9166 13.5752C27.033 13.5928 27.1505 13.6017 27.2682 13.6016C29.1781 13.6016 31.0044 11.3419 31.4369 8.34131V8.34131Z" stroke="#484848" stroke-width="3" stroke-miterlimit="10"/>
<path d="M8.48353 22.2061C10.4514 21.415 11.0262 18.3389 9.77728 15.3383C8.72611 12.8106 6.71253 11.1406 4.93363 11.1406C4.59824 11.1397 4.26572 11.2023 3.95365 11.3252C1.98578 12.1162 1.41097 15.1924 2.6599 18.193C3.71107 20.7207 5.72464 22.3906 7.50355 22.3906C7.83894 22.3916 8.17146 22.3289 8.48353 22.2061V22.2061Z" stroke="#484848" stroke-width="3" stroke-miterlimit="10"/>
</svg>
