<svg width="24" height="23" viewBox="0 0 24 23" fill="none" xmlns="http://www.w3.org/2000/svg">
<g clip-path="url(#clip0_2_653)">
<path d="M21.5108 7.64122C21.3484 7.57842 21.1753 7.54641 21.0007 7.54688H20.9825C20.0606 7.56036 19.0268 8.40893 18.4843 9.69235C17.8339 11.2278 18.1332 12.7987 19.1579 13.2025C19.3202 13.2653 19.4931 13.2974 19.6675 13.2969C20.594 13.2969 21.642 12.4434 22.1891 11.1514C22.8349 9.61598 22.5309 8.04506 21.5108 7.64122V7.64122Z" stroke="#484848" stroke-width="1.875" stroke-miterlimit="10"/>
<path d="M15.5624 13.6329C14.2918 11.5606 13.7433 10.7812 12.2899 10.7812C10.8365 10.7812 10.2835 11.5656 9.0129 13.6329C7.92514 15.401 5.72675 15.5484 5.1783 17.0501C5.06703 17.3252 5.01115 17.6188 5.01376 17.9148C5.01376 19.1363 5.96441 20.125 7.13445 20.125C8.58785 20.125 10.5669 18.9844 12.2945 18.9844C14.0221 18.9844 15.992 20.125 17.4454 20.125C18.6154 20.125 19.5615 19.1367 19.5615 17.9148C19.5625 17.6186 19.5051 17.3249 19.3924 17.0501C18.8439 15.543 16.6501 15.401 15.5624 13.6329Z" stroke="#484848" stroke-width="1.875" stroke-miterlimit="10"/>
<path d="M9.38834 8.80469C9.44954 8.80474 9.51065 8.80023 9.57116 8.79121C10.632 8.63982 11.2942 7.19514 11.0538 5.56357C10.8276 4.02545 9.87783 2.875 8.88468 2.875C8.82348 2.87495 8.76236 2.87946 8.70186 2.88848C7.64106 3.03986 6.9788 4.48455 7.2192 6.11611C7.44544 7.64975 8.39518 8.80469 9.38834 8.80469Z" stroke="#484848" stroke-width="1.875" stroke-miterlimit="10"/>
<path d="M17.3591 6.11611C17.5995 4.48455 16.9372 3.03986 15.8764 2.88848C15.8159 2.87946 15.7548 2.87495 15.6936 2.875C14.7005 2.875 13.7525 4.02545 13.5258 5.56357C13.2854 7.19514 13.9477 8.63982 15.0085 8.79121C15.069 8.80023 15.1301 8.80474 15.1913 8.80469C16.1845 8.80469 17.1342 7.64975 17.3591 6.11611V6.11611Z" stroke="#484848" stroke-width="1.875" stroke-miterlimit="10"/>
<path d="M5.42427 13.2025C6.44759 12.7982 6.7465 11.226 6.09704 9.69235C5.55042 8.4004 4.50333 7.54688 3.57827 7.54688C3.40386 7.54641 3.23094 7.57842 3.06866 7.64122C2.04534 8.04551 1.74643 9.61778 2.39589 11.1514C2.94252 12.4434 3.98961 13.2969 4.91467 13.2969C5.08907 13.2973 5.26199 13.2653 5.42427 13.2025V13.2025Z" stroke="#484848" stroke-width="1.875" stroke-miterlimit="10"/>
</g>
<defs>
<clipPath id="clip0_2_653">
<rect width="23.4007" height="23" fill="white" transform="translate(0.589844)"/>
</clipPath>
</defs>
</svg>
