<svg width="49" height="49" viewBox="0 0 49 49" fill="none" xmlns="http://www.w3.org/2000/svg">
<circle cx="24.5" cy="24.5" r="24.5" fill="#FF3366"/>
<path fill-rule="evenodd" clip-rule="evenodd" d="M28.3257 27.899L33.7057 33.279C33.8948 33.4682 34.001 33.7248 34.0009 33.9923C34.0008 34.2599 33.8945 34.5164 33.7052 34.7055C33.516 34.8946 33.2594 35.0008 32.9919 35.0007C32.7244 35.0006 32.4678 34.8942 32.2787 34.705L26.8987 29.325C25.2905 30.5707 23.268 31.1569 21.2429 30.9643C19.2177 30.7718 17.342 29.815 15.9972 28.2886C14.6525 26.7622 13.9397 24.7808 14.004 22.7475C14.0683 20.7143 14.9047 18.7818 16.3431 17.3434C17.7816 15.9049 19.714 15.0685 21.7473 15.0042C23.7806 14.94 25.7619 15.6527 27.2884 16.9975C28.8148 18.3422 29.7716 20.218 29.9641 22.2431C30.1566 24.2683 29.5704 26.2907 28.3247 27.899H28.3257ZM22.0007 29C23.592 29 25.1182 28.3678 26.2434 27.2426C27.3686 26.1174 28.0007 24.5913 28.0007 23C28.0007 21.4087 27.3686 19.8826 26.2434 18.7573C25.1182 17.6321 23.592 17 22.0007 17C20.4094 17 18.8833 17.6321 17.7581 18.7573C16.6329 19.8826 16.0007 21.4087 16.0007 23C16.0007 24.5913 16.6329 26.1174 17.7581 27.2426C18.8833 28.3678 20.4094 29 22.0007 29Z" fill="white"/>
</svg>
