<svg width="30" height="22" viewBox="0 0 30 22" fill="none" xmlns="http://www.w3.org/2000/svg">
<path d="M4.6875 21.0059C4.6875 20.7698 4.78627 20.5433 4.96209 20.3764C5.1379 20.2094 5.37636 20.1156 5.625 20.1156H24.375C24.6236 20.1156 24.8621 20.2094 25.0379 20.3764C25.2137 20.5433 25.3125 20.7698 25.3125 21.0059C25.3125 21.242 25.2137 21.4685 25.0379 21.6355C24.8621 21.8024 24.6236 21.8962 24.375 21.8962H5.625C5.37636 21.8962 5.1379 21.8024 4.96209 21.6355C4.78627 21.4685 4.6875 21.242 4.6875 21.0059ZM26.2331 2.30898L26.2781 2.31076C26.6285 2.33341 26.9709 2.41986 27.2869 2.5654C27.5144 2.66596 27.7098 2.82203 27.8531 3.01768C27.9787 3.19575 28.125 3.51093 28.125 4.08964V14.7576L28.1231 14.8003C28.0991 15.133 28.0081 15.4582 27.855 15.7583C27.749 15.9743 27.5847 16.1599 27.3787 16.2961C27.1912 16.4154 26.8594 16.5543 26.25 16.5543H3.76688L3.72187 16.5525C3.37157 16.5297 3.02913 16.4432 2.71312 16.2978C2.48564 16.1972 2.29027 16.0412 2.14687 15.8456C2.02125 15.6675 1.875 15.3523 1.875 14.7736V4.10567L1.87688 4.06293C1.90073 3.73022 1.99176 3.40498 2.145 3.10494C2.25097 2.88889 2.41529 2.70335 2.62125 2.56718C2.80875 2.44787 3.14062 2.30898 3.75 2.30898H26.2331ZM26.25 0.52832H3.75C0 0.52832 0 4.08964 0 4.08964V14.7736C0 18.3349 3.75 18.3349 3.75 18.3349H26.25C30 18.3349 30 14.7736 30 14.7736V4.08964C30 0.52832 26.25 0.52832 26.25 0.52832Z" fill="#484848"/>
</svg>
