<svg width="36" height="36" viewBox="0 0 36 36" fill="none" xmlns="http://www.w3.org/2000/svg">
<path d="M34.2 13.2632H9V7.57895C9 5.48905 10.6146 3.78947 12.6 3.78947C14.5854 3.78947 16.2 5.48905 16.2 7.57895H19.8C19.8 3.39916 16.5708 0 12.6 0C8.6292 0 5.4 3.39916 5.4 7.57895V13.2632H1.8C1.32261 13.2632 0.864773 13.4628 0.527208 13.8181C0.189642 14.1734 0 14.6554 0 15.1579V18.9474C0 23.8851 3.0132 28.0857 7.2 29.6526V36H10.8V30.3158H25.2V36H28.8V29.6526C32.9868 28.0857 36 23.8851 36 18.9474V15.1579C36 14.6554 35.8104 14.1734 35.4728 13.8181C35.1352 13.4628 34.6774 13.2632 34.2 13.2632ZM32.4 18.9474C32.4 23.1272 29.1708 26.5263 25.2 26.5263H10.8C6.8292 26.5263 3.6 23.1272 3.6 18.9474V17.0526H32.4V18.9474Z" fill="#484848"/>
</svg>
