<svg width="20" height="20" viewBox="0 0 20 20" fill="none" xmlns="http://www.w3.org/2000/svg">
<path d="M19.9471 7.18002C19.8843 6.99491 19.7686 6.83225 19.6143 6.71214C19.4601 6.59202 19.274 6.5197 19.0791 6.50411L13.3781 6.05117L10.9111 0.590889C10.8325 0.415025 10.7047 0.265654 10.5431 0.160804C10.3815 0.0559538 10.193 0.000105865 10.0004 1.50359e-07C9.80777 -0.000105564 9.61922 0.0555355 9.45751 0.160208C9.2958 0.264881 9.16784 0.414111 9.08908 0.589889L6.62206 6.05117L0.921032 6.50411C0.729486 6.51928 0.546368 6.5893 0.393584 6.70581C0.2408 6.82231 0.12482 6.98036 0.0595198 7.16105C-0.00578041 7.34173 -0.017636 7.5374 0.0253714 7.72465C0.0683787 7.91189 0.164428 8.08278 0.302028 8.21688L4.51505 12.3233L3.02504 18.7745C2.9798 18.9698 2.9943 19.1741 3.06666 19.361C3.13903 19.548 3.26591 19.7088 3.43085 19.8228C3.59579 19.9367 3.79117 19.9984 3.99163 20C4.1921 20.0015 4.3884 19.9427 4.55505 19.8313L10.0001 16.2018L15.4451 19.8313C15.6155 19.9444 15.8163 20.0026 16.0208 19.9981C16.2252 19.9937 16.4233 19.9267 16.5885 19.8063C16.7537 19.6858 16.8781 19.5177 16.9449 19.3245C17.0117 19.1313 17.0177 18.9222 16.9621 18.7255L15.1331 12.3263L19.6691 8.24487C19.9661 7.97691 20.0751 7.55897 19.9471 7.18002Z" fill="#484848"/>
</svg>
