<svg width="29" height="19" viewBox="0 0 29 19" fill="none" xmlns="http://www.w3.org/2000/svg">
<path d="M27.9669 5.60977C28.0612 5.52281 28.1345 5.41748 28.1818 5.30102C28.2291 5.18457 28.2492 5.05976 28.2409 4.9352C28.2325 4.81064 28.1958 4.68928 28.1333 4.57949C28.0708 4.46969 27.9839 4.37407 27.8788 4.29921C23.8813 1.53909 19.0642 0.0557476 14.1219 0.0630149C8.98251 0.0630149 4.2275 1.63356 0.365002 4.29921C0.259711 4.37393 0.172729 4.46945 0.11005 4.57917C0.0473699 4.6889 0.0104822 4.81022 0.00192787 4.93479C-0.00662644 5.05936 0.013356 5.1842 0.0604985 5.30073C0.107641 5.41725 0.180823 5.52269 0.275002 5.60977C0.438868 5.76305 0.654696 5.85613 0.884059 5.87243C1.11342 5.88874 1.34144 5.82721 1.5275 5.69881C5.19339 3.18627 9.60102 1.8371 14.1219 1.84368C18.8225 1.84368 23.1725 3.27177 26.7144 5.69702C27.0988 5.96056 27.6331 5.92851 27.9669 5.60977Z" fill="#484848"/>
<path d="M23.9262 9.44893C24.0228 9.36041 24.0975 9.25255 24.1447 9.1332C24.1919 9.01385 24.2106 8.88601 24.1992 8.75897C24.1879 8.63193 24.147 8.50887 24.0793 8.39875C24.0116 8.28863 23.919 8.1942 23.8081 8.12234C20.9251 6.3438 17.5597 5.39972 14.1219 5.40505C10.55 5.40505 7.22185 6.40222 4.4356 8.12234C4.32414 8.19378 4.23094 8.28803 4.16288 8.39817C4.09481 8.50831 4.05359 8.63154 4.04226 8.75879C4.03093 8.88605 4.04977 9.01409 4.0974 9.13352C4.14502 9.25295 4.22023 9.36073 4.31748 9.44893C4.47723 9.59701 4.68524 9.68912 4.90738 9.71015C5.12951 9.73119 5.35258 9.67989 5.53998 9.56468C8.10127 8.0067 11.0802 7.18091 14.1219 7.18571C17.1628 7.18125 20.1411 8.00703 22.7019 9.56468C23.0881 9.79972 23.6019 9.75699 23.9262 9.44893ZM19.8331 13.3361C20.2569 12.9337 20.18 12.2588 19.6456 12.0006C17.9347 11.1738 16.0416 10.7441 14.1219 10.747C12.1344 10.747 10.2556 11.1993 8.5981 12.0006C8.06373 12.2588 7.98685 12.9337 8.4106 13.3361L8.43873 13.3628C8.73873 13.6477 9.20185 13.7012 9.58435 13.5231C10.9967 12.8657 12.5491 12.5252 14.1219 12.5277C15.7494 12.5277 17.2906 12.8856 18.6594 13.5249C19.04 13.7029 19.5031 13.6495 19.8031 13.3628L19.8331 13.3361ZM16.1094 16.8725C16.4769 16.5235 16.4806 15.9466 16.0344 15.6973C15.4559 15.3703 14.795 15.198 14.1219 15.1987C13.4487 15.198 12.7878 15.3703 12.2094 15.6973C11.7631 15.9466 11.7669 16.5235 12.1344 16.8725L13.4581 18.1297C13.6339 18.2966 13.8723 18.3903 14.1209 18.3903C14.3695 18.3903 14.6079 18.2966 14.7837 18.1297L16.1094 16.8707V16.8725Z" fill="#484848"/>
</svg>
