<svg width="26" height="20" viewBox="0 0 26 20" fill="none" xmlns="http://www.w3.org/2000/svg">
<path d="M3.71875 2.725C3.71875 2.2675 3.90335 1.82874 4.23195 1.50524C4.56055 1.18174 5.00622 1 5.47093 1H20.6565C21.1212 1 21.5669 1.18174 21.8955 1.50524C22.2241 1.82874 22.4087 2.2675 22.4087 2.725V9.05H3.71875V2.725Z" stroke="#484848" stroke-width="2" stroke-linecap="round" stroke-linejoin="round"/>
<path d="M2.54883 15.95V18.25" stroke="#484848" stroke-width="2" stroke-linecap="round" stroke-linejoin="round"/>
<path d="M23.5742 15.95V18.25" stroke="#484848" stroke-width="2" stroke-linecap="round" stroke-linejoin="round"/>
<path d="M15.9834 6.17505H10.1428C9.6781 6.17505 9.23242 6.35679 8.90383 6.68029C8.57523 7.00379 8.39063 7.44255 8.39062 7.90005V9.05005H17.7356V7.90005C17.7356 7.44255 17.551 7.00379 17.2224 6.68029C16.8938 6.35679 16.4481 6.17505 15.9834 6.17505Z" stroke="#484848" stroke-width="2" stroke-linecap="round" stroke-linejoin="round"/>
<path d="M1.38086 10.775C1.38086 10.3176 1.56546 9.87879 1.89406 9.55529C2.22266 9.23179 2.66833 9.05005 3.13304 9.05005H22.9911C23.4558 9.05005 23.9015 9.23179 24.2301 9.55529C24.5587 9.87879 24.7433 10.3176 24.7433 10.775V15.95H1.38086V10.775Z" stroke="#484848" stroke-width="2" stroke-linecap="round" stroke-linejoin="round"/>
</svg>
