<svg width="27" height="20" viewBox="0 0 27 20" fill="none" xmlns="http://www.w3.org/2000/svg">
<path d="M3.99414 2.725C3.99414 2.2675 4.18033 1.82874 4.51175 1.50524C4.84318 1.18174 5.29268 1 5.76138 1H21.0775C21.5462 1 21.9957 1.18174 22.3271 1.50524C22.6585 1.82874 22.8447 2.2675 22.8447 2.725V9.05H3.99414V2.725Z" stroke="#484848" stroke-width="2" stroke-linecap="round" stroke-linejoin="round"/>
<path d="M2.81445 15.95V18.25" stroke="#484848" stroke-width="2" stroke-linecap="round" stroke-linejoin="round"/>
<path d="M24.0215 15.95V18.25" stroke="#484848" stroke-width="2" stroke-linecap="round" stroke-linejoin="round"/>
<path d="M16.3651 6.17505H10.4743C10.0056 6.17505 9.55607 6.35679 9.22464 6.68029C8.89322 7.00379 8.70703 7.44255 8.70703 7.90005V9.05005H18.1323V7.90005C18.1323 7.44255 17.9461 7.00379 17.6147 6.68029C17.2833 6.35679 16.8338 6.17505 16.3651 6.17505Z" stroke="#484848" stroke-width="2" stroke-linecap="round" stroke-linejoin="round"/>
<path d="M1.63672 10.775C1.63672 10.3176 1.82291 9.87879 2.15433 9.55529C2.48575 9.23179 2.93526 9.05005 3.40396 9.05005H23.4327C23.9014 9.05005 24.3509 9.23179 24.6824 9.55529C25.0138 9.87879 25.2 10.3176 25.2 10.775V15.95H1.63672V10.775Z" stroke="#484848" stroke-width="2" stroke-linecap="round" stroke-linejoin="round"/>
</svg>
