<svg width="47" height="36" viewBox="0 0 47 36" fill="none" xmlns="http://www.w3.org/2000/svg">
<path d="M6.29883 5.225C6.29883 4.36968 6.6386 3.54938 7.24341 2.94458C7.84821 2.33978 8.66851 2 9.52383 2H37.4738C38.3292 2 39.1494 2.33978 39.7543 2.94458C40.3591 3.54938 40.6988 4.36968 40.6988 5.225V17.05H6.29883V5.225Z" stroke="#484848" stroke-width="3" stroke-linecap="round" stroke-linejoin="round"/>
<path d="M4.15039 29.9502V34.2502" stroke="#484848" stroke-width="3" stroke-linecap="round" stroke-linejoin="round"/>
<path d="M42.8496 29.9502V34.2502" stroke="#484848" stroke-width="3" stroke-linecap="round" stroke-linejoin="round"/>
<path d="M28.8754 11.6748H18.1254C17.2701 11.6748 16.4498 12.0146 15.845 12.6194C15.2402 13.2242 14.9004 14.0445 14.9004 14.8998V17.0498H32.1004V14.8998C32.1004 14.0445 31.7606 13.2242 31.1558 12.6194C30.551 12.0146 29.7307 11.6748 28.8754 11.6748Z" stroke="#484848" stroke-width="3" stroke-linecap="round" stroke-linejoin="round"/>
<path d="M2 20.2748C2 19.4195 2.33978 18.5992 2.94458 17.9944C3.54939 17.3896 4.36968 17.0498 5.225 17.0498H41.775C42.6303 17.0498 43.4506 17.3896 44.0554 17.9944C44.6602 18.5992 45 19.4195 45 20.2748V29.9498H2V20.2748Z" stroke="#484848" stroke-width="3" stroke-linecap="round" stroke-linejoin="round"/>
</svg>
