<svg width="28" height="27" viewBox="0 0 28 27" fill="none" xmlns="http://www.w3.org/2000/svg">
<path d="M4.78516 11.8125L6.81217 7.16397C7.14214 6.40723 7.98288 5.90625 8.92235 5.90625H19.5339C20.4733 5.90625 21.3141 6.40723 21.644 7.16397L23.671 11.8125" stroke="#484848" stroke-width="1.875" stroke-linecap="round" stroke-linejoin="round"/>
<path d="M4.78516 11.8125H23.671V19.4062H4.78516V11.8125Z" stroke="#484848" stroke-width="1.875" stroke-linecap="round" stroke-linejoin="round"/>
<path d="M6.50206 19.4062V21.0938H4.78516V19.4062" stroke="#484848" stroke-width="1.875" stroke-linecap="round" stroke-linejoin="round"/>
<path d="M23.672 19.4062V21.0938H21.9551V19.4062" stroke="#484848" stroke-width="1.875" stroke-linecap="round" stroke-linejoin="round"/>
<path d="M8.21978 16.0312C8.69389 16.0312 9.07823 15.6535 9.07823 15.1875C9.07823 14.7215 8.69389 14.3438 8.21978 14.3438C7.74567 14.3438 7.36133 14.7215 7.36133 15.1875C7.36133 15.6535 7.74567 16.0312 8.21978 16.0312Z" stroke="#484848" stroke-width="1.875" stroke-linecap="round" stroke-linejoin="round"/>
<path d="M20.2374 16.0312C20.7115 16.0312 21.0958 15.6535 21.0958 15.1875C21.0958 14.7215 20.7115 14.3438 20.2374 14.3438C19.7632 14.3438 19.3789 14.7215 19.3789 15.1875C19.3789 15.6535 19.7632 16.0312 20.2374 16.0312Z" stroke="#484848" stroke-width="1.875" stroke-linecap="round" stroke-linejoin="round"/>
</svg>
