<svg width="29" height="27" viewBox="0 0 29 27" fill="none" xmlns="http://www.w3.org/2000/svg">
<path d="M4.82422 11.8125L6.86531 7.16397C7.19757 6.40723 8.04416 5.90625 8.99015 5.90625H19.6754C20.6214 5.90625 21.4679 6.40723 21.8002 7.16397L23.8413 11.8125" stroke="#484848" stroke-width="1.875" stroke-linecap="round" stroke-linejoin="round"/>
<path d="M4.82422 11.8125H23.8413V19.4062H4.82422V11.8125Z" stroke="#484848" stroke-width="1.875" stroke-linecap="round" stroke-linejoin="round"/>
<path d="M6.55304 19.4062V21.0938H4.82422V19.4062" stroke="#484848" stroke-width="1.875" stroke-linecap="round" stroke-linejoin="round"/>
<path d="M23.8421 19.4062V21.0938H22.1133V19.4062" stroke="#484848" stroke-width="1.875" stroke-linecap="round" stroke-linejoin="round"/>
<path d="M8.28238 16.0312C8.75978 16.0312 9.14679 15.6535 9.14679 15.1875C9.14679 14.7215 8.75978 14.3438 8.28238 14.3438C7.80498 14.3438 7.41797 14.7215 7.41797 15.1875C7.41797 15.6535 7.80498 16.0312 8.28238 16.0312Z" stroke="#484848" stroke-width="1.875" stroke-linecap="round" stroke-linejoin="round"/>
<path d="M20.3839 16.0312C20.8613 16.0312 21.2484 15.6535 21.2484 15.1875C21.2484 14.7215 20.8613 14.3438 20.3839 14.3438C19.9065 14.3438 19.5195 14.7215 19.5195 15.1875C19.5195 15.6535 19.9065 16.0312 20.3839 16.0312Z" stroke="#484848" stroke-width="1.875" stroke-linecap="round" stroke-linejoin="round"/>
</svg>
