<svg width="32" height="30" viewBox="0 0 32 30" fill="none" xmlns="http://www.w3.org/2000/svg">
<path d="M27.4449 5.76258C26.7908 5.12384 26.0142 4.61714 25.1594 4.27144C24.3047 3.92574 23.3885 3.7478 22.4633 3.7478C21.5381 3.7478 20.6219 3.92574 19.7672 4.27144C18.9124 4.61714 18.1358 5.12384 17.4817 5.76258L16.1243 7.08758L14.7668 5.76258C13.4456 4.47297 11.6537 3.74847 9.78525 3.74847C7.91679 3.74847 6.12487 4.47297 4.80367 5.76258C3.48247 7.0522 2.74023 8.80129 2.74023 10.6251C2.74023 12.4489 3.48247 14.198 4.80367 15.4876L6.16112 16.8126L16.1243 26.5376L26.0874 16.8126L27.4449 15.4876C28.0993 14.8491 28.6184 14.0911 28.9725 13.2568C29.3267 12.4225 29.509 11.5282 29.509 10.6251C29.509 9.72198 29.3267 8.82771 28.9725 7.99339C28.6184 7.15907 28.0993 6.40103 27.4449 5.76258V5.76258Z" stroke="#9A9A9A" stroke-width="2.5" stroke-linecap="round" stroke-linejoin="round"/>
</svg>
