<svg width="30" height="30" viewBox="0 0 30 30" fill="none" xmlns="http://www.w3.org/2000/svg">
<path d="M26.0497 5.76258C25.4112 5.12384 24.6532 4.61714 23.8189 4.27144C22.9845 3.92574 22.0903 3.7478 21.1872 3.7478C20.2841 3.7478 19.3898 3.92574 18.5555 4.27144C17.7211 4.61714 16.9631 5.12384 16.3247 5.76258L14.9997 7.08758L13.6747 5.76258C12.385 4.47297 10.636 3.74847 8.81216 3.74847C6.98837 3.74847 5.23928 4.47297 3.94966 5.76258C2.66005 7.0522 1.93555 8.80129 1.93555 10.6251C1.93555 12.4489 2.66005 14.198 3.94966 15.4876L5.27466 16.8126L14.9997 26.5376L24.7247 16.8126L26.0497 15.4876C26.6884 14.8491 27.1951 14.0911 27.5408 13.2568C27.8865 12.4225 28.0644 11.5282 28.0644 10.6251C28.0644 9.72198 27.8865 8.82771 27.5408 7.99339C27.1951 7.15907 26.6884 6.40103 26.0497 5.76258V5.76258Z" stroke="#9A9A9A" stroke-width="2.5" stroke-linecap="round" stroke-linejoin="round"/>
</svg>
