<svg width="95" height="14" viewBox="0 0 95 14" fill="none" xmlns="http://www.w3.org/2000/svg">
<path d="M13.963 5.02601C13.919 4.89643 13.838 4.78258 13.73 4.6985C13.6221 4.61442 13.4918 4.56379 13.3554 4.55287L9.36467 4.23582L7.63776 0.413622C7.58277 0.290517 7.49331 0.185958 7.38019 0.112563C7.26708 0.0391676 7.13513 7.41055e-05 7.00029 1.05251e-07C6.86544 -7.3895e-05 6.73345 0.0388748 6.62025 0.112146C6.50706 0.185417 6.41749 0.289878 6.36236 0.412923L4.63545 4.23582L0.644722 4.55287C0.51064 4.56349 0.382457 4.61251 0.275508 4.69407C0.16856 4.77562 0.087374 4.88625 0.0416638 5.01273C-0.00404629 5.13921 -0.0123452 5.27618 0.0177599 5.40725C0.0478651 5.53832 0.1151 5.65795 0.21142 5.75181L3.16054 8.62633L2.11753 13.1421C2.08586 13.2788 2.09601 13.4219 2.14666 13.5527C2.19732 13.6836 2.28614 13.7962 2.40159 13.8759C2.51705 13.9557 2.65382 13.9989 2.79414 14C2.93447 14.001 3.07188 13.9599 3.18854 13.8819L7.00006 11.3413L10.8116 13.8819C10.9308 13.9611 11.0714 14.0018 11.2145 13.9987C11.3576 13.9956 11.4963 13.9487 11.612 13.8644C11.7276 13.7801 11.8147 13.6624 11.8614 13.5271C11.9082 13.3919 11.9124 13.2456 11.8735 13.1078L10.5932 8.62843L13.7684 5.77141C13.9763 5.58384 14.0526 5.29128 13.963 5.02601Z" fill="#484848"/>
<path d="M34.963 5.02601C34.919 4.89643 34.838 4.78258 34.73 4.6985C34.6221 4.61442 34.4918 4.56379 34.3554 4.55287L30.3647 4.23582L28.6378 0.413622C28.5828 0.290517 28.4933 0.185958 28.3802 0.112563C28.2671 0.0391676 28.1351 7.41055e-05 28.0003 1.05251e-07C27.8654 -7.3895e-05 27.7335 0.0388748 27.6203 0.112146C27.5071 0.185417 27.4175 0.289878 27.3624 0.412923L25.6354 4.23582L21.6447 4.55287C21.5106 4.56349 21.3825 4.61251 21.2755 4.69407C21.1686 4.77562 21.0874 4.88625 21.0417 5.01273C20.996 5.13921 20.9877 5.27618 21.0178 5.40725C21.0479 5.53832 21.1151 5.65795 21.2114 5.75181L24.1605 8.62633L23.1175 13.1421C23.0859 13.2788 23.096 13.4219 23.1467 13.5527C23.1973 13.6836 23.2861 13.7962 23.4016 13.8759C23.5171 13.9557 23.6538 13.9989 23.7941 14C23.9345 14.001 24.0719 13.9599 24.1885 13.8819L28.0001 11.3413L31.8116 13.8819C31.9308 13.9611 32.0714 14.0018 32.2145 13.9987C32.3576 13.9956 32.4963 13.9487 32.612 13.8644C32.7276 13.7801 32.8147 13.6624 32.8614 13.5271C32.9082 13.3919 32.9124 13.2456 32.8735 13.1078L31.5932 8.62843L34.7684 5.77141C34.9763 5.58384 35.0526 5.29128 34.963 5.02601Z" fill="#484848"/>
<path d="M54.963 5.02601C54.919 4.89643 54.838 4.78258 54.73 4.6985C54.6221 4.61442 54.4918 4.56379 54.3554 4.55287L50.3647 4.23582L48.6378 0.413622C48.5828 0.290517 48.4933 0.185958 48.3802 0.112563C48.2671 0.0391676 48.1351 7.41055e-05 48.0003 1.05251e-07C47.8654 -7.3895e-05 47.7335 0.0388748 47.6203 0.112146C47.5071 0.185417 47.4175 0.289878 47.3624 0.412923L45.6354 4.23582L41.6447 4.55287C41.5106 4.56349 41.3825 4.61251 41.2755 4.69407C41.1686 4.77562 41.0874 4.88625 41.0417 5.01273C40.996 5.13921 40.9877 5.27618 41.0178 5.40725C41.0479 5.53832 41.1151 5.65795 41.2114 5.75181L44.1605 8.62633L43.1175 13.1421C43.0859 13.2788 43.096 13.4219 43.1467 13.5527C43.1973 13.6836 43.2861 13.7962 43.4016 13.8759C43.5171 13.9557 43.6538 13.9989 43.7941 14C43.9345 14.001 44.0719 13.9599 44.1885 13.8819L48.0001 11.3413L51.8116 13.8819C51.9308 13.9611 52.0714 14.0018 52.2145 13.9987C52.3576 13.9956 52.4963 13.9487 52.612 13.8644C52.7276 13.7801 52.8147 13.6624 52.8614 13.5271C52.9082 13.3919 52.9124 13.2456 52.8735 13.1078L51.5932 8.62843L54.7684 5.77141C54.9763 5.58384 55.0526 5.29128 54.963 5.02601Z" fill="#484848"/>
<path d="M74.963 5.02601C74.919 4.89643 74.838 4.78258 74.73 4.6985C74.6221 4.61442 74.4918 4.56379 74.3554 4.55287L70.3647 4.23582L68.6378 0.413622C68.5828 0.290517 68.4933 0.185958 68.3802 0.112563C68.2671 0.0391676 68.1351 7.41055e-05 68.0003 1.05251e-07C67.8654 -7.3895e-05 67.7335 0.0388748 67.6203 0.112146C67.5071 0.185417 67.4175 0.289878 67.3624 0.412923L65.6354 4.23582L61.6447 4.55287C61.5106 4.56349 61.3825 4.61251 61.2755 4.69407C61.1686 4.77562 61.0874 4.88625 61.0417 5.01273C60.996 5.13921 60.9877 5.27618 61.0178 5.40725C61.0479 5.53832 61.1151 5.65795 61.2114 5.75181L64.1605 8.62633L63.1175 13.1421C63.0859 13.2788 63.096 13.4219 63.1467 13.5527C63.1973 13.6836 63.2861 13.7962 63.4016 13.8759C63.5171 13.9557 63.6538 13.9989 63.7941 14C63.9345 14.001 64.0719 13.9599 64.1885 13.8819L68.0001 11.3413L71.8116 13.8819C71.9308 13.9611 72.0714 14.0018 72.2145 13.9987C72.3576 13.9956 72.4963 13.9487 72.612 13.8644C72.7276 13.7801 72.8147 13.6624 72.8614 13.5271C72.9082 13.3919 72.9124 13.2456 72.8735 13.1078L71.5932 8.62843L74.7684 5.77141C74.9763 5.58384 75.0526 5.29128 74.963 5.02601Z" fill="#484848"/>
<path d="M94.963 5.02601C94.919 4.89643 94.838 4.78258 94.73 4.6985C94.6221 4.61442 94.4918 4.56379 94.3554 4.55287L90.3647 4.23582L88.6378 0.413622C88.5828 0.290517 88.4933 0.185958 88.3802 0.112563C88.2671 0.0391676 88.1351 7.41055e-05 88.0003 1.05251e-07C87.8654 -7.3895e-05 87.7335 0.0388748 87.6203 0.112146C87.5071 0.185417 87.4175 0.289878 87.3624 0.412923L85.6354 4.23582L81.6447 4.55287C81.5106 4.56349 81.3825 4.61251 81.2755 4.69407C81.1686 4.77562 81.0874 4.88625 81.0417 5.01273C80.996 5.13921 80.9877 5.27618 81.0178 5.40725C81.0479 5.53832 81.1151 5.65795 81.2114 5.75181L84.1605 8.62633L83.1175 13.1421C83.0859 13.2788 83.096 13.4219 83.1467 13.5527C83.1973 13.6836 83.2861 13.7962 83.4016 13.8759C83.5171 13.9557 83.6538 13.9989 83.7941 14C83.9345 14.001 84.0719 13.9599 84.1885 13.8819L88.0001 11.3413L91.8116 13.8819C91.9308 13.9611 92.0714 14.0018 92.2145 13.9987C92.3576 13.9956 92.4963 13.9487 92.612 13.8644C92.7276 13.7801 92.8147 13.6624 92.8614 13.5271C92.9082 13.3919 92.9124 13.2456 92.8735 13.1078L91.5932 8.62843L94.7684 5.77141C94.9763 5.58384 95.0526 5.29128 94.963 5.02601Z" fill="#484848"/>
</svg>
