<svg width="41" height="34" viewBox="0 0 41 34" fill="none" xmlns="http://www.w3.org/2000/svg">
<path d="M2 13.7727L5.97119 4.50696C6.61764 2.99858 8.26477 2 10.1053 2H30.8947C32.7352 2 34.3823 2.99858 35.0288 4.50696L39 13.7727" stroke="#484848" stroke-width="3" stroke-linecap="round" stroke-linejoin="round"/>
<path d="M2 13.7727H39V28.9091H2V13.7727Z" stroke="#484848" stroke-width="3" stroke-linecap="round" stroke-linejoin="round"/>
<path d="M5.36364 28.9092V32.2728H2V28.9092" stroke="#484848" stroke-width="3" stroke-linecap="round" stroke-linejoin="round"/>
<path d="M39.0004 28.9092V32.2728H35.6367V28.9092" stroke="#484848" stroke-width="3" stroke-linecap="round" stroke-linejoin="round"/>
<path d="M8.72674 22.1818C9.65558 22.1818 10.4086 21.4288 10.4086 20.4999C10.4086 19.5711 9.65558 18.8181 8.72674 18.8181C7.7979 18.8181 7.04492 19.5711 7.04492 20.4999C7.04492 21.4288 7.7979 22.1818 8.72674 22.1818Z" stroke="#484848" stroke-width="3" stroke-linecap="round" stroke-linejoin="round"/>
<path d="M32.2736 22.1818C33.2025 22.1818 33.9554 21.4288 33.9554 20.4999C33.9554 19.5711 33.2025 18.8181 32.2736 18.8181C31.3448 18.8181 30.5918 19.5711 30.5918 20.4999C30.5918 21.4288 31.3448 22.1818 32.2736 22.1818Z" stroke="#484848" stroke-width="3" stroke-linecap="round" stroke-linejoin="round"/>
</svg>
