<svg width="30" height="27" viewBox="0 0 30 27" fill="none" xmlns="http://www.w3.org/2000/svg">
<path d="M26.1141 4.01478C25.4757 3.37604 24.7176 2.86934 23.8833 2.52364C23.049 2.17793 22.1547 2 21.2516 2C20.3485 2 19.4542 2.17793 18.6199 2.52364C17.7856 2.86934 17.0276 3.37604 16.3891 4.01478L15.0641 5.33978L13.7391 4.01478C12.4495 2.72517 10.7004 2.00067 8.87661 2.00067C7.05282 2.00067 5.30373 2.72517 4.01411 4.01478C2.7245 5.3044 2 7.05349 2 8.87728C2 10.7011 2.7245 12.4502 4.01411 13.7398L5.33911 15.0648L15.0641 24.7898L24.7891 15.0648L26.1141 13.7398C26.7529 13.1013 27.2596 12.3433 27.6053 11.509C27.951 10.6747 28.1289 9.78039 28.1289 8.87728C28.1289 7.97417 27.951 7.07991 27.6053 6.24559C27.2596 5.41126 26.7529 4.65323 26.1141 4.01478V4.01478Z" stroke="#9A9A9A" stroke-width="2.5" stroke-linecap="round" stroke-linejoin="round"/>
</svg>
