<svg width="23" height="26" viewBox="0 0 23 26" fill="none" xmlns="http://www.w3.org/2000/svg">
<path d="M11.3715 25.0566C11.1561 25.0566 10.9494 24.9753 10.797 24.8306C10.6446 24.6859 10.559 24.4896 10.559 24.285V22.2895L9.50929 23.288C9.35673 23.4327 9.14989 23.5139 8.93428 23.5138C8.71867 23.5136 8.51196 23.4321 8.3596 23.2872C8.20726 23.1424 8.12175 22.9459 8.1219 22.7412C8.12206 22.5364 8.20785 22.3401 8.36042 22.1954L10.559 20.1074V14.0471L5.03404 17.0765L4.22804 19.9315C4.17202 20.1292 4.03559 20.2976 3.84878 20.3998C3.66197 20.5019 3.44008 20.5294 3.23192 20.4762C3.02376 20.423 2.84638 20.2935 2.7388 20.1161C2.63123 19.9387 2.60227 19.7279 2.65829 19.5302L3.04342 18.1691L1.22342 19.166C1.0369 19.2667 0.816012 19.2933 0.608953 19.2399C0.401893 19.1865 0.225474 19.0575 0.118194 18.8811C0.0109147 18.7046 -0.0185161 18.495 0.0363244 18.298C0.091165 18.101 0.225825 17.9326 0.410918 17.8296L2.23092 16.8326L0.794418 16.4669C0.691346 16.4406 0.594748 16.3952 0.510139 16.3334C0.42553 16.2716 0.354567 16.1946 0.301301 16.1067C0.248035 16.0189 0.213509 15.9219 0.199696 15.8214C0.185882 15.7209 0.193051 15.6188 0.220793 15.5209C0.248534 15.423 0.296306 15.3313 0.36138 15.2509C0.426453 15.1706 0.507555 15.1032 0.600053 15.0526C0.692552 15.002 0.794637 14.9692 0.900478 14.9561C1.00632 14.943 1.11385 14.9498 1.21692 14.9761L4.21992 15.74L9.74654 12.7107L4.22154 9.68128L1.21529 10.4452C1.00849 10.4941 0.789706 10.464 0.606112 10.3611C0.422519 10.2583 0.288814 10.0911 0.233818 9.89557C0.178822 9.70002 0.206938 9.49177 0.312108 9.31572C0.417277 9.13967 0.591076 9.00991 0.796043 8.95442L2.23092 8.58867L0.410918 7.59173C0.317768 7.54144 0.236014 7.47414 0.170363 7.39372C0.104712 7.31329 0.0564594 7.22133 0.0283844 7.12312C0.000309499 7.02492 -0.00703373 6.92241 0.00677764 6.8215C0.020589 6.72058 0.0552822 6.62326 0.10886 6.53513C0.162437 6.44701 0.23384 6.36982 0.318959 6.308C0.404078 6.24619 0.50123 6.20098 0.604824 6.17496C0.708417 6.14895 0.816404 6.14266 0.922569 6.15645C1.02873 6.17023 1.13098 6.20382 1.22342 6.25529L3.04342 7.25222L2.65829 5.88954C2.62873 5.79105 2.6201 5.68795 2.63292 5.58626C2.64574 5.48457 2.67975 5.38632 2.73296 5.29724C2.78618 5.20816 2.85753 5.13003 2.94287 5.06741C3.02821 5.00479 3.12581 4.95893 3.23001 4.9325C3.3342 4.90607 3.44288 4.89961 3.54973 4.91348C3.65658 4.92736 3.75945 4.9613 3.85235 5.01332C3.94525 5.06534 4.02631 5.1344 4.09081 5.21648C4.15531 5.29856 4.20196 5.39201 4.22804 5.49139L5.03242 8.34484L10.559 11.3742V5.31391L8.36042 3.22591C8.28487 3.15427 8.22493 3.0692 8.18401 2.97556C8.14308 2.88192 8.12198 2.78154 8.1219 2.68015C8.12183 2.57876 8.14278 2.47836 8.18357 2.38466C8.22435 2.29096 8.28417 2.20581 8.3596 2.13407C8.43504 2.06233 8.52462 2.0054 8.62322 1.96653C8.72182 1.92767 8.82752 1.90763 8.93428 1.90756C9.04104 1.90748 9.14677 1.92738 9.24543 1.96612C9.34409 2.00485 9.43375 2.06166 9.50929 2.1333L10.559 3.13177V1.13637C10.559 0.931719 10.6446 0.735455 10.797 0.590748C10.9494 0.446042 11.1561 0.364746 11.3715 0.364746C11.587 0.364746 11.7937 0.446042 11.9461 0.590748C12.0984 0.735455 12.184 0.931719 12.184 1.13637V3.13177L13.2354 2.1333C13.388 1.98861 13.5948 1.90741 13.8104 1.90756C14.026 1.9077 14.2328 1.98918 14.3851 2.13407C14.5375 2.27896 14.623 2.47539 14.6228 2.68015C14.6227 2.88491 14.5369 3.08123 14.3843 3.22591L12.184 5.31391V11.3742L17.709 8.34484L18.515 5.48984C18.5711 5.29216 18.7075 5.1237 18.8943 5.02154C19.0811 4.91937 19.303 4.89187 19.5112 4.94508C19.7193 4.99829 19.8967 5.12785 20.0043 5.30526C20.1119 5.48267 20.1408 5.6934 20.0848 5.89109L19.7013 7.25222L21.5213 6.25529C21.7078 6.15458 21.9287 6.12802 22.1358 6.18141C22.3428 6.2348 22.5192 6.36379 22.6265 6.54025C22.7338 6.71671 22.7632 6.92631 22.7084 7.1233C22.6535 7.32029 22.5189 7.48868 22.3338 7.59173L20.5138 8.58867L21.9487 8.95442C22.1568 9.00762 22.3342 9.13718 22.4418 9.31459C22.5494 9.492 22.5783 9.70273 22.5223 9.90042C22.4663 10.0981 22.3298 10.2666 22.143 10.3687C21.9562 10.4709 21.7343 10.4984 21.5262 10.4452L18.5232 9.68128L12.9965 12.7107L18.5215 15.74L21.5262 14.9761C21.7343 14.9231 21.9561 14.9508 22.1428 15.0531C22.3295 15.1554 22.4657 15.324 22.5215 15.5217C22.5773 15.7194 22.5481 15.93 22.4404 16.1073C22.3327 16.2845 22.1552 16.4139 21.947 16.4669L20.5122 16.8326L22.3322 17.8296C22.5173 17.9326 22.6519 18.101 22.7068 18.298C22.7616 18.495 22.7322 18.7046 22.6249 18.8811C22.5176 19.0575 22.3412 19.1865 22.1341 19.2399C21.9271 19.2933 21.7062 19.2667 21.5197 19.166L19.6997 18.1691L20.0832 19.5318C20.1127 19.6303 20.1214 19.7334 20.1085 19.8351C20.0957 19.9367 20.0617 20.035 20.0085 20.1241C19.9553 20.2132 19.8839 20.2913 19.7986 20.3539C19.7133 20.4165 19.6156 20.4624 19.5115 20.4888C19.4073 20.5152 19.2986 20.5217 19.1917 20.5078C19.0849 20.494 18.982 20.46 18.8891 20.408C18.7962 20.356 18.7152 20.2869 18.6507 20.2048C18.5861 20.1228 18.5395 20.0293 18.5134 19.9299L17.709 17.0765L12.184 14.0471V20.1074L14.3827 22.1954C14.5352 22.3401 14.621 22.5364 14.6212 22.7412C14.6213 22.9459 14.5358 23.1424 14.3835 23.2872C14.2311 23.4321 14.0244 23.5136 13.8088 23.5138C13.5932 23.5139 13.3864 23.4327 13.2338 23.288L12.1824 22.2895V24.285C12.1824 24.4896 12.0968 24.6859 11.9444 24.8306C11.7921 24.9753 11.5854 25.0566 11.3699 25.0566H11.3715Z" fill="#484848"/>
</svg>
