<svg width="36" height="32" viewBox="0 0 36 32" fill="none" xmlns="http://www.w3.org/2000/svg">
<path d="M31.6271 4.4754C30.8427 3.69063 29.9114 3.06809 28.8863 2.64335C27.8612 2.21861 26.7625 2 25.6529 2C24.5434 2 23.4446 2.21861 22.4196 2.64335C21.3945 3.06809 20.4632 3.69063 19.6788 4.4754L18.0508 6.10333L16.4229 4.4754C14.8385 2.89096 12.6895 2.00082 10.4488 2.00082C8.208 2.00082 6.05903 2.89096 4.47458 4.4754C2.89013 6.05985 2 8.20882 2 10.4496C2 12.6903 2.89013 14.8393 4.47458 16.4237L6.1025 18.0517L18.0508 30L29.9992 18.0517L31.6271 16.4237C32.4119 15.6393 33.0344 14.708 33.4592 13.6829C33.8839 12.6579 34.1025 11.5592 34.1025 10.4496C34.1025 9.33999 33.8839 8.24129 33.4592 7.21622C33.0344 6.19115 32.4119 5.25981 31.6271 4.4754V4.4754Z" stroke="#484848" stroke-width="3" stroke-linecap="round" stroke-linejoin="round"/>
</svg>
