<svg width="22" height="22" viewBox="0 0 22 22" fill="none" xmlns="http://www.w3.org/2000/svg">
<path d="M2.0625 2.55633V19.443C2.06261 19.4797 2.07354 19.5155 2.09391 19.5459C2.11428 19.5764 2.14319 19.6001 2.17701 19.6142C2.21083 19.6283 2.24806 19.6321 2.28402 19.6251C2.31999 19.6181 2.35309 19.6007 2.37918 19.575L11.1719 11.0001L2.37918 2.42442C2.35309 2.39869 2.31999 2.38125 2.28402 2.37426C2.24806 2.36728 2.21083 2.37107 2.17701 2.38515C2.14319 2.39924 2.11428 2.423 2.09391 2.45345C2.07354 2.48391 2.06261 2.51969 2.0625 2.55633Z" fill="#484848"/>
<path d="M14.8583 7.47645L3.8334 1.40238L3.82653 1.39852C3.6366 1.29539 3.45613 1.55234 3.61168 1.70188L12.254 9.96563L14.8583 7.47645Z" fill="#484848"/>
<path d="M3.61219 20.2981C3.45578 20.4476 3.63625 20.7045 3.82703 20.6014L3.8339 20.5975L14.858 14.5235L12.2536 12.0334L3.61219 20.2981Z" fill="#484848"/>
<path d="M19.3095 9.92577L16.2307 8.23022L13.3359 11L16.2307 13.7685L19.3095 12.0742C20.1469 11.6114 20.1469 10.3885 19.3095 9.92577Z" fill="#484848"/>
</svg>
