<svg width="24" height="23" viewBox="0 0 24 23" fill="none" xmlns="http://www.w3.org/2000/svg">
<g clip-path="url(#clip0_2_603)">
<path d="M21.1104 7.64122C20.9468 7.57842 20.7726 7.54641 20.5968 7.54688H20.5784C19.6501 7.56036 18.6091 8.40893 18.0628 9.69235C17.4079 11.2278 17.7094 12.7987 18.7412 13.2025C18.9046 13.2653 19.0787 13.2974 19.2543 13.2969C20.1872 13.2969 21.2425 12.4434 21.7934 11.1514C22.4436 9.61598 22.1376 8.04506 21.1104 7.64122V7.64122Z" stroke="#484848" stroke-width="1.875" stroke-miterlimit="10"/>
<path d="M15.122 13.6329C13.8425 11.5606 13.2903 10.7812 11.8268 10.7812C10.3633 10.7812 9.80642 11.5656 8.52701 13.6329C7.43169 15.401 5.21803 15.5484 4.66577 17.0501C4.55373 17.3252 4.49746 17.6188 4.50009 17.9148C4.50009 19.1363 5.45734 20.125 6.63551 20.125C8.099 20.125 10.0918 18.9844 11.8314 18.9844C13.571 18.9844 15.5546 20.125 17.0181 20.125C18.1962 20.125 19.1489 19.1367 19.1489 17.9148C19.1499 17.6186 19.0921 17.3249 18.9786 17.0501C18.4263 15.543 16.2173 15.401 15.122 13.6329Z" stroke="#484848" stroke-width="1.875" stroke-miterlimit="10"/>
<path d="M8.90375 8.80469C8.96537 8.80474 9.02691 8.80023 9.08784 8.79121C10.156 8.63982 10.8229 7.19514 10.5808 5.56357C10.353 4.02545 9.39664 2.875 8.39659 2.875C8.33496 2.87495 8.27343 2.87946 8.2125 2.88848C7.14433 3.03986 6.47747 4.48455 6.71955 6.11611C6.94736 7.64975 7.90369 8.80469 8.90375 8.80469Z" stroke="#484848" stroke-width="1.875" stroke-miterlimit="10"/>
<path d="M16.931 6.11611C17.173 4.48455 16.5062 3.03986 15.438 2.88848C15.3771 2.87946 15.3156 2.87495 15.2539 2.875C14.2539 2.875 13.2994 4.02545 13.0711 5.56357C12.829 7.19514 13.4959 8.63982 14.5641 8.79121C14.625 8.80023 14.6865 8.80474 14.7481 8.80469C15.7482 8.80469 16.7045 7.64975 16.931 6.11611V6.11611Z" stroke="#484848" stroke-width="1.875" stroke-miterlimit="10"/>
<path d="M4.91253 13.2025C5.94297 12.7982 6.24395 11.226 5.58998 9.69235C5.03956 8.4004 3.98519 7.54688 3.05371 7.54688C2.87809 7.54641 2.70397 7.57842 2.54056 7.64122C1.51013 8.04551 1.20915 9.61778 1.86312 11.1514C2.41354 12.4434 3.46791 13.2969 4.39939 13.2969C4.57501 13.2973 4.74913 13.2653 4.91253 13.2025V13.2025Z" stroke="#484848" stroke-width="1.875" stroke-miterlimit="10"/>
</g>
<defs>
<clipPath id="clip0_2_603">
<rect width="23.5632" height="23" fill="white" transform="translate(0.0449219)"/>
</clipPath>
</defs>
</svg>
