<svg width="111" height="35" viewBox="0 0 111 35" fill="none" xmlns="http://www.w3.org/2000/svg">
<g filter="url(#filter0_d_118_176)">
<path d="M1 5C1 2.23858 3.23858 0 6 0H105C107.761 0 110 2.23858 110 5V27C110 29.7614 107.761 32 105 32H6C3.23858 32 1 29.7614 1 27V5Z" fill="#FBFCFE"/>
<path d="M1.25 5C1.25 2.37665 3.37665 0.25 6 0.25H105C107.623 0.25 109.75 2.37665 109.75 5V27C109.75 29.6234 107.623 31.75 105 31.75H6C3.37665 31.75 1.25 29.6234 1.25 27V5Z" stroke="#DDE4F0" stroke-width="0.5"/>
</g>
<defs>
<filter id="filter0_d_118_176" x="0" y="0" width="111" height="35" filterUnits="userSpaceOnUse" color-interpolation-filters="sRGB">
<feFlood flood-opacity="0" result="BackgroundImageFix"/>
<feColorMatrix in="SourceAlpha" type="matrix" values="0 0 0 0 0 0 0 0 0 0 0 0 0 0 0 0 0 0 127 0" result="hardAlpha"/>
<feOffset dy="2"/>
<feGaussianBlur stdDeviation="0.5"/>
<feColorMatrix type="matrix" values="0 0 0 0 0.25098 0 0 0 0 0.282353 0 0 0 0 0.321569 0 0 0 0.05 0"/>
<feBlend mode="normal" in2="BackgroundImageFix" result="effect1_dropShadow_118_176"/>
<feBlend mode="normal" in="SourceGraphic" in2="effect1_dropShadow_118_176" result="shape"/>
</filter>
</defs>
</svg>
