<svg width="32" height="35" viewBox="0 0 32 35" fill="none" xmlns="http://www.w3.org/2000/svg">
<path d="M25.3327 11.3333C27.91 11.3333 29.9993 9.244 29.9993 6.66667C29.9993 4.08934 27.91 2 25.3327 2C22.7554 2 20.666 4.08934 20.666 6.66667C20.666 9.244 22.7554 11.3333 25.3327 11.3333Z" stroke="#484848" stroke-width="3" stroke-linecap="round" stroke-linejoin="round"/>
<path d="M6.66667 22.2222C9.244 22.2222 11.3333 20.1329 11.3333 17.5556C11.3333 14.9783 9.244 12.8889 6.66667 12.8889C4.08934 12.8889 2 14.9783 2 17.5556C2 20.1329 4.08934 22.2222 6.66667 22.2222Z" stroke="#484848" stroke-width="3" stroke-linecap="round" stroke-linejoin="round"/>
<path d="M25.3327 33.1112C27.91 33.1112 29.9993 31.0218 29.9993 28.4445C29.9993 25.8672 27.91 23.7778 25.3327 23.7778C22.7554 23.7778 20.666 25.8672 20.666 28.4445C20.666 31.0218 22.7554 33.1112 25.3327 33.1112Z" stroke="#484848" stroke-width="3" stroke-linecap="round" stroke-linejoin="round"/>
<path d="M10.6953 19.9043L21.3198 26.0954" stroke="#484848" stroke-width="3" stroke-linecap="round" stroke-linejoin="round"/>
<path d="M21.3042 9.01538L10.6953 15.2065" stroke="#484848" stroke-width="3" stroke-linecap="round" stroke-linejoin="round"/>
</svg>
