<svg width="30" height="30" viewBox="0 0 30 30" fill="none" xmlns="http://www.w3.org/2000/svg">
<path d="M16.7629 15L22.1379 9.63749C22.3733 9.40211 22.5055 9.08286 22.5055 8.74999C22.5055 8.41711 22.3733 8.09787 22.1379 7.86249C21.9025 7.62711 21.5833 7.49487 21.2504 7.49487C20.9175 7.49487 20.5983 7.62711 20.3629 7.86249L15.0004 13.2375L9.63791 7.86249C9.40253 7.62711 9.08329 7.49487 8.75041 7.49487C8.41753 7.49487 8.09829 7.62711 7.86291 7.86249C7.62753 8.09787 7.4953 8.41711 7.4953 8.74999C7.4953 9.08286 7.62753 9.40211 7.86291 9.63749L13.2379 15L7.86291 20.3625C7.74575 20.4787 7.65276 20.6169 7.5893 20.7693C7.52584 20.9216 7.49316 21.085 7.49316 21.25C7.49316 21.415 7.52584 21.5784 7.5893 21.7307C7.65276 21.883 7.74575 22.0213 7.86291 22.1375C7.97912 22.2546 8.11737 22.3476 8.26969 22.4111C8.42202 22.4746 8.5854 22.5072 8.75041 22.5072C8.91543 22.5072 9.07881 22.4746 9.23113 22.4111C9.38346 22.3476 9.52171 22.2546 9.63791 22.1375L15.0004 16.7625L20.3629 22.1375C20.4791 22.2546 20.6174 22.3476 20.7697 22.4111C20.922 22.4746 21.0854 22.5072 21.2504 22.5072C21.4154 22.5072 21.5788 22.4746 21.7311 22.4111C21.8835 22.3476 22.0217 22.2546 22.1379 22.1375C22.2551 22.0213 22.3481 21.883 22.4115 21.7307C22.475 21.5784 22.5077 21.415 22.5077 21.25C22.5077 21.085 22.475 20.9216 22.4115 20.7693C22.3481 20.6169 22.2551 20.4787 22.1379 20.3625L16.7629 15Z" fill="#484848"/>
</svg>
