<svg width="20" height="19" viewBox="0 0 20 19" fill="none" xmlns="http://www.w3.org/2000/svg">
<path d="M18.9112 7H5.28318V4C5.28318 2.897 6.15635 2 7.23005 2C8.30374 2 9.17691 2.897 9.17691 4H11.1238C11.1238 1.794 9.37744 0 7.23005 0C5.08265 0 3.33632 1.794 3.33632 4V7H1.38945C1.13128 7 0.883682 7.10536 0.701128 7.29289C0.518573 7.48043 0.416016 7.73478 0.416016 8V10C0.416016 12.606 2.04554 14.823 4.30975 15.65V19H6.25661V16H14.0441V19H15.9909V15.65C18.2552 14.823 19.8847 12.606 19.8847 10V8C19.8847 7.73478 19.7821 7.48043 19.5996 7.29289C19.417 7.10536 19.1694 7 18.9112 7ZM17.9378 10C17.9378 12.206 16.1915 14 14.0441 14H6.25661C4.10922 14 2.36288 12.206 2.36288 10V9H17.9378V10Z" fill="#484848"/>
</svg>
