<svg width="20" height="19" viewBox="0 0 20 19" fill="none" xmlns="http://www.w3.org/2000/svg">
<path d="M18.8769 7H5.13167V4C5.13167 2.897 6.01234 2 7.09527 2C8.1782 2 9.05887 2.897 9.05887 4H11.0225C11.0225 1.794 9.26112 0 7.09527 0C4.92941 0 3.16806 1.794 3.16806 4V7H1.20446C0.944068 7 0.694343 7.10536 0.510219 7.29289C0.326096 7.48043 0.222656 7.73478 0.222656 8V10C0.222656 12.606 1.86619 14.823 4.14986 15.65V19H6.11347V16H13.9679V19H15.9315V15.65C18.2152 14.823 19.8587 12.606 19.8587 10V8C19.8587 7.73478 19.7553 7.48043 19.5711 7.29289C19.387 7.10536 19.1373 7 18.8769 7ZM17.8951 10C17.8951 12.206 16.1337 14 13.9679 14H6.11347C3.94761 14 2.18626 12.206 2.18626 10V9H17.8951V10Z" fill="#484848"/>
</svg>
